<svg viewBox="0 0 123 40" xmlns="http://www.w3.org/2000/svg">
<path d="M42.2922 35.557C42.4775 35.5731 42.6397 35.5846 42.788 35.5915C42.9363 35.5985 43.058 35.6031 43.1634 35.6031C43.2688 35.6031 43.3951 35.6031 43.5399 35.5915C43.6847 35.58 43.8446 35.5731 44.0242 35.557L43.9732 35.8209H43.8921C43.8255 35.8183 43.7589 35.8269 43.6952 35.8463C43.6511 35.8596 43.6132 35.8882 43.5886 35.9269C43.5446 35.9992 43.4886 36.2239 43.4206 36.6012C43.3882 36.7844 43.3615 36.9296 43.3418 37.038L43.2978 37.25C43.2503 37.5025 43.2121 37.7111 43.1819 37.8851C43.1616 37.9994 43.1485 38.1149 43.1425 38.2309C43.1381 38.2649 43.1419 38.2995 43.1535 38.3317C43.1652 38.364 43.1845 38.393 43.2097 38.4164C43.2879 38.4577 43.3765 38.4754 43.4646 38.4671H43.5365L43.4878 38.7368C43.27 38.7195 43.0904 38.708 42.9502 38.7011C42.81 38.6942 42.6953 38.6907 42.6027 38.6907C42.51 38.6907 42.3709 38.6907 42.2296 38.7011C42.0883 38.7115 41.8983 38.7195 41.6758 38.7368L41.7291 38.4671H41.8704C41.9448 38.4713 42.0192 38.4591 42.0883 38.4314C42.1394 38.4057 42.1788 38.3616 42.1983 38.3081C42.2373 38.1832 42.269 38.0562 42.2933 37.9277C42.3373 37.7272 42.3852 37.4844 42.437 37.1993L42.4648 37.0311L42.4938 36.8789C42.583 36.3891 42.6281 36.1079 42.6281 36.0376C42.632 36.0053 42.6271 35.9727 42.6141 35.9429C42.6011 35.9131 42.5803 35.8873 42.554 35.8681C42.4659 35.8309 42.3701 35.8155 42.2748 35.8232H42.2331L42.2922 35.557Z" />
<path d="M43.7114 38.466H43.8133C43.8922 38.4685 43.9709 38.456 44.0451 38.4291C44.1001 38.4085 44.1446 38.367 44.169 38.3138C44.2672 37.9886 44.3446 37.6576 44.4007 37.3227L44.41 37.2719L44.4471 37.0737L44.4679 36.9746C44.5745 36.4214 44.6278 36.1148 44.6278 36.0526C44.6318 36.0181 44.6279 35.9833 44.6165 35.9505C44.6051 35.9178 44.5863 35.8881 44.5618 35.8635C44.4872 35.8204 44.4008 35.8019 44.315 35.8105C44.2972 35.8096 44.2795 35.8096 44.2617 35.8105H44.2061L44.2594 35.542L44.5351 35.5512C44.7356 35.5581 44.8642 35.5604 44.9232 35.5604H45.3206C45.4087 35.5604 45.4909 35.5604 45.5662 35.5535C45.6325 35.7614 45.728 35.9589 45.8501 36.1402L45.8756 36.1816L46.7642 37.6488L46.9206 36.7452C46.96 36.5147 46.9878 36.3488 47.0028 36.237C47.015 36.1576 47.0224 36.0775 47.0249 35.9972C47.0276 35.9701 47.0236 35.9427 47.0133 35.9174C47.003 35.8921 46.9867 35.8696 46.9658 35.852C46.9046 35.8175 46.8343 35.8022 46.7642 35.8082H46.7016C46.6877 35.8071 46.6738 35.8071 46.6599 35.8082L46.7063 35.5397L46.8766 35.5466C47.0909 35.5547 47.2357 35.5581 47.3099 35.5581C47.4257 35.5581 47.6285 35.5524 47.9123 35.542H47.9957L47.9587 35.8105C47.9448 35.8094 47.9308 35.8094 47.9169 35.8105H47.8532C47.6447 35.8105 47.5057 36.0307 47.4222 36.4732C47.4037 36.5747 47.3886 36.653 47.3782 36.7037L47.362 36.7936C47.1565 37.8786 47.0542 38.5055 47.055 38.6746C47.055 38.6826 47.055 38.693 47.055 38.7057C47.055 38.7184 47.055 38.7287 47.055 38.7345H46.3425C46.298 38.5832 46.2287 38.4403 46.1374 38.3115C46.1142 38.277 46.0969 38.2481 46.0841 38.2286L44.9951 36.4317L44.8236 37.4298C44.7865 37.65 44.7587 37.824 44.7413 37.9542C44.7264 38.0481 44.7175 38.1428 44.7147 38.2378C44.7111 38.2709 44.7162 38.3045 44.7294 38.3351C44.7425 38.3658 44.7634 38.3926 44.79 38.413C44.8745 38.4539 44.9686 38.4714 45.0623 38.4637H45.0993L45.046 38.7345L44.5826 38.6873C44.4865 38.6792 44.4146 38.6746 44.3683 38.6746C44.2779 38.6746 44.1783 38.6746 44.0659 38.6861C43.9535 38.6976 43.8191 38.7057 43.6604 38.7207L43.7114 38.466Z" />
<path d="M48.2923 38.466C48.3997 38.4726 48.5075 38.4589 48.6098 38.4256C48.641 38.4101 48.6688 38.3884 48.6913 38.3619C48.7138 38.3353 48.7306 38.3045 48.7407 38.2712C48.7581 38.2251 48.7905 38.0949 48.838 37.8782C48.8855 37.6615 48.9353 37.4172 48.9875 37.1371L49.1914 35.9961H48.8635C48.7151 35.9826 48.5667 36.0213 48.4441 36.1056C48.3417 36.2206 48.2787 36.3651 48.2645 36.5182L47.9795 36.4778C48.0189 36.3338 48.0548 36.1828 48.0849 36.026C48.1151 35.8693 48.1406 35.7033 48.1602 35.5293C48.2792 35.5511 48.3996 35.5646 48.5206 35.5696C48.6781 35.58 48.8577 35.5846 49.0593 35.5846C49.1365 35.5846 49.2593 35.5823 49.4277 35.5777H49.839C50.2252 35.5777 50.5395 35.5739 50.7821 35.5662C50.9498 35.5636 51.1172 35.5521 51.2837 35.5316C51.2536 35.6642 51.2269 35.8071 51.2038 35.9627C51.1806 36.1183 51.1574 36.2946 51.1366 36.494L50.8516 36.5205C50.8516 36.5136 50.8516 36.5044 50.8516 36.4917C50.8516 36.4352 50.8585 36.3949 50.8585 36.3695C50.8649 36.3178 50.8595 36.2654 50.8426 36.2161C50.8257 36.1668 50.7979 36.1219 50.7612 36.0848C50.6963 36.0341 50.5538 36.0042 50.3337 35.9984H50.0834L49.8598 37.1993C49.8123 37.4517 49.7718 37.6788 49.744 37.8782C49.7214 37.9998 49.7055 38.1225 49.6965 38.2458C49.6929 38.2781 49.6975 38.3107 49.7098 38.3407C49.7221 38.3707 49.7419 38.3971 49.7672 38.4176C49.8412 38.4576 49.9253 38.4752 50.0093 38.4683H50.0672L50.0232 38.738C49.8286 38.723 49.6559 38.7115 49.5065 38.7034C49.357 38.6953 49.2331 38.6919 49.1323 38.6919C49.0512 38.6919 48.9539 38.6919 48.838 38.6999C48.7221 38.708 48.524 38.7172 48.2425 38.738L48.2923 38.466Z" />
<path d="M51.023 38.4602C51.0354 38.4615 51.0478 38.4615 51.0601 38.4602H51.118C51.1891 38.4625 51.2599 38.4512 51.3266 38.4268C51.3764 38.4095 51.4178 38.3741 51.4424 38.3277C51.4799 38.2402 51.5079 38.149 51.5258 38.0557C51.5583 37.9174 51.6069 37.673 51.6695 37.325L51.6938 37.1867C51.7788 36.7256 51.8333 36.4202 51.8572 36.2704C51.8745 36.1793 51.8864 36.0874 51.8931 35.9949C51.8967 35.9677 51.8922 35.94 51.8803 35.9153C51.8684 35.8905 51.8495 35.8697 51.8259 35.8555C51.7303 35.8229 51.6291 35.8092 51.5282 35.8151L51.5815 35.5466C51.7367 35.5627 51.9024 35.5743 52.0796 35.5812C52.2569 35.5881 52.4678 35.5927 52.7122 35.5927H52.9775C53.3359 35.5927 53.6105 35.5889 53.8013 35.5812C53.992 35.5735 54.1739 35.562 54.3469 35.5466C54.3133 35.701 54.2844 35.8474 54.2612 35.988C54.238 36.1286 54.2195 36.2658 54.2056 36.4018H53.9438C53.9438 36.3926 53.9438 36.381 53.9438 36.3684C53.9438 36.3557 53.9438 36.3361 53.9438 36.3119C53.9501 36.2622 53.9445 36.2117 53.9274 36.1646C53.9102 36.1175 53.8821 36.0752 53.8453 36.041C53.7789 35.9949 53.6244 35.9719 53.3819 35.9719C53.266 35.9719 53.0876 35.9719 52.8408 35.9788H52.7713L52.747 36.101C52.6612 36.5359 52.6095 36.8009 52.5917 36.8962H53.2C53.2994 36.9068 53.3997 36.8867 53.4873 36.8386C53.5459 36.7704 53.5805 36.685 53.5858 36.5954L53.8557 36.6254C53.8128 36.7913 53.7792 36.9538 53.7514 37.1129C53.7236 37.2719 53.7039 37.4275 53.69 37.5797L53.4282 37.5866C53.4282 37.5647 53.4282 37.5416 53.434 37.5151C53.4398 37.4886 53.434 37.4725 53.434 37.4667C53.4381 37.4337 53.4332 37.4002 53.4197 37.3698C53.4062 37.3394 53.3848 37.3131 53.3575 37.2938C53.2513 37.2548 53.1378 37.2395 53.025 37.2489H52.8373C52.7458 37.2489 52.6705 37.2489 52.6114 37.2489H52.5257C52.5199 37.2846 52.5071 37.3492 52.4886 37.4448C52.4318 37.7641 52.382 38.0453 52.3426 38.2873L52.8142 38.2965H53.0876C53.3355 38.2965 53.5058 38.2608 53.5973 38.1894C53.6889 38.1179 53.763 37.9704 53.8186 37.7468L54.1002 37.7894C54.0642 37.9289 54.0306 38.0741 53.9994 38.2274C53.9681 38.3807 53.9368 38.5397 53.9078 38.708C53.6286 38.6907 53.3784 38.678 53.1559 38.6723C52.9335 38.6665 52.7203 38.6619 52.5164 38.6619C52.3125 38.6619 52.0959 38.6619 51.8526 38.6723C51.6093 38.6827 51.3138 38.6907 50.9651 38.708L51.023 38.4602Z" />
<path d="M54.1813 38.4614H54.311C54.3824 38.4652 54.4534 38.4493 54.5161 38.4153C54.571 38.3781 54.6118 38.3237 54.6319 38.2608C54.6516 38.2032 54.6922 38.0153 54.7478 37.6995L54.8219 37.3123L54.8706 37.0703C54.9274 36.781 54.9702 36.5401 55.0027 36.3488C55.0246 36.2321 55.0404 36.1144 55.0502 35.9961C55.0529 35.9679 55.0478 35.9396 55.0353 35.9141C55.0228 35.8887 55.0035 35.8672 54.9795 35.852C54.895 35.8182 54.8038 35.8044 54.713 35.8117H54.6667L54.7223 35.5524L55.1151 35.5766C55.2205 35.5766 55.3132 35.5846 55.3931 35.5846C55.509 35.5846 55.6793 35.5777 55.9017 35.5616C56.1242 35.5454 56.2898 35.5385 56.3964 35.5385C56.754 35.5385 57.029 35.6084 57.2213 35.7483C57.3156 35.8175 57.3913 35.9089 57.4414 36.0143C57.4916 36.1197 57.5146 36.2358 57.5086 36.3522C57.5104 36.5491 57.4437 36.7404 57.3198 36.8939C57.1793 37.0632 56.995 37.1911 56.7869 37.2639L57.0047 37.7099C57.0217 37.7429 57.0448 37.7902 57.0742 37.8517C57.2727 38.2643 57.4843 38.4706 57.7091 38.4706H57.8133L57.7624 38.7518C57.6697 38.7599 57.5851 38.7656 57.5086 38.7702C57.4322 38.7749 57.365 38.776 57.3047 38.776C57.1278 38.7804 56.9514 38.7563 56.7822 38.7045C56.6542 38.664 56.5405 38.5881 56.4543 38.4856C56.3441 38.3273 56.2571 38.1542 56.196 37.9715C56.0987 37.7203 56.0234 37.5359 55.9643 37.4206H55.9504C55.8519 37.4264 55.7801 37.4298 55.7349 37.4298H55.6515L55.5935 37.7318C55.5704 37.8574 55.5518 37.9715 55.5379 38.0776C55.5275 38.1436 55.5206 38.2102 55.5171 38.277C55.5147 38.305 55.5196 38.3333 55.5313 38.3589C55.5431 38.3846 55.5613 38.4068 55.5843 38.4233C55.6492 38.4592 55.7234 38.4753 55.7974 38.4694H55.8924L55.8531 38.7403C55.6619 38.7241 55.4951 38.7115 55.3549 38.7034C55.2147 38.6953 55.1023 38.6907 55.0177 38.6907C54.9332 38.6907 54.8022 38.6907 54.6586 38.7022C54.5149 38.7138 54.3388 38.7218 54.128 38.7368L54.1813 38.4614ZM55.7117 37.0933H55.8299C56.0388 37.1045 56.2447 37.0398 56.4092 36.9112C56.48 36.8474 56.5357 36.7686 56.5722 36.6807C56.6086 36.5928 56.625 36.4979 56.62 36.4029C56.6259 36.3382 56.616 36.2729 56.5912 36.2128C56.5664 36.1526 56.5274 36.0992 56.4775 36.0572C56.344 35.9742 56.1872 35.9362 56.0303 35.9488H55.9249C55.9017 36.0741 55.8658 36.2631 55.8171 36.5159C55.7731 36.7775 55.736 36.9665 55.7117 37.0933Z" />
<path d="M57.8597 38.466H57.9616C58.0405 38.4682 58.1191 38.4557 58.1933 38.4291C58.2478 38.4081 58.2919 38.3667 58.3161 38.3138C58.415 37.9888 58.4924 37.6577 58.5479 37.3227L58.5571 37.2719L58.5942 37.0737L58.6151 36.9746C58.7228 36.4214 58.7761 36.1148 58.7761 36.0526C58.7799 36.0181 58.7759 35.9831 58.7642 35.9504C58.7526 35.9177 58.7337 35.888 58.7089 35.8635C58.6343 35.8204 58.5479 35.8019 58.4621 35.8105C58.4444 35.8096 58.4266 35.8096 58.4088 35.8105H58.3532L58.4065 35.542L58.6822 35.5512C58.8827 35.5581 59.0113 35.5604 59.0704 35.5604H59.4677C59.5558 35.5604 59.6381 35.5604 59.7134 35.5535C59.7796 35.7614 59.8752 35.9589 59.9972 36.1402L60.0227 36.1816L60.9125 37.6488L61.0677 36.7452C61.1083 36.5147 61.1349 36.3488 61.15 36.237C61.1622 36.1576 61.1695 36.0775 61.172 35.9972C61.1747 35.9701 61.1708 35.9427 61.1605 35.9174C61.1502 35.8921 61.1338 35.8696 61.1129 35.852C61.0522 35.8172 60.9822 35.8019 60.9125 35.8082H60.8487C60.8349 35.8071 60.8209 35.8071 60.807 35.8082L60.8534 35.5397L61.0237 35.5466C61.238 35.5547 61.3828 35.5581 61.4581 35.5581C61.574 35.5581 61.7756 35.5524 62.0594 35.542H62.1429L62.1058 35.8105C62.0919 35.8094 62.078 35.8094 62.0641 35.8105H62.0015C61.7918 35.8105 61.6482 36.0307 61.5694 36.4732C61.5508 36.5747 61.5358 36.653 61.5253 36.7037L61.5091 36.7936C61.3044 37.8786 61.2021 38.5055 61.2021 38.6746C61.2021 38.6826 61.2021 38.693 61.2021 38.7057C61.2021 38.7184 61.2021 38.7287 61.2021 38.7345H60.4896C60.4452 38.5832 60.3759 38.4403 60.2845 38.3115C60.2614 38.277 60.244 38.2481 60.2312 38.2286L59.1503 36.4421L58.9788 37.4402C58.9418 37.6603 58.914 37.8344 58.8966 37.9646C58.8816 38.0585 58.8727 38.1532 58.8699 38.2481C58.8667 38.2813 58.8719 38.3147 58.885 38.3453C58.8982 38.3759 58.9189 38.4028 58.9452 38.4233C59.0298 38.4643 59.1238 38.4818 59.2175 38.474H59.2546L59.2013 38.7449L58.7436 38.6976C58.6463 38.6896 58.5745 38.685 58.5282 38.685C58.439 38.685 58.3382 38.685 58.2269 38.6965C58.1157 38.708 57.979 38.7161 57.8203 38.7311L57.8597 38.466Z" />
<path d="M61.6864 38.4614H61.7698C61.9706 38.4614 62.2097 38.2251 62.4869 37.7526L63.4161 36.2162L63.4926 36.0894C63.6171 35.9027 63.7253 35.7057 63.8158 35.5005H64.6268C64.6407 35.6342 64.6569 35.7621 64.6731 35.8831C64.6894 36.0042 64.7091 36.1136 64.7276 36.2185L65.0752 38.1064C65.0829 38.2099 65.1202 38.3091 65.1829 38.3922C65.2539 38.4413 65.3401 38.4638 65.4262 38.4556H65.4749L65.4401 38.7253L65.3497 38.7184C64.9512 38.6915 64.6994 38.6784 64.5944 38.6792C64.4866 38.6792 64.3569 38.6792 64.2074 38.6907C64.0579 38.7022 63.8911 38.7103 63.7104 38.7253L63.7521 38.4556H63.8425C63.933 38.4639 64.0239 38.4446 64.1031 38.4003C64.1301 38.3769 64.1509 38.3474 64.1638 38.3143C64.1767 38.2812 64.1814 38.2454 64.1773 38.2101C64.1773 38.1917 64.1773 38.1698 64.1773 38.1456C64.1773 38.1214 64.1703 38.0949 64.1657 38.0672L64.1089 37.7214L63.7845 37.7226H63.2991C63.1751 37.7226 63.0674 37.7226 62.9782 37.7226L62.8299 38.0027C62.7988 38.0576 62.7724 38.115 62.7511 38.1744C62.7354 38.2161 62.7268 38.2601 62.7256 38.3046C62.7244 38.3276 62.7294 38.3504 62.7403 38.3707C62.7511 38.391 62.7672 38.408 62.787 38.4199C62.8528 38.4492 62.9248 38.4619 62.9967 38.4568H63.0291L62.9874 38.7264H62.9666C62.6198 38.698 62.397 38.6838 62.2981 38.6838C62.2332 38.6838 62.1556 38.6838 62.0664 38.6919C61.9772 38.6999 61.8347 38.7103 61.6389 38.7299L61.6864 38.4614ZM63.1925 37.3538C63.2481 37.3538 63.3084 37.3538 63.364 37.3538H63.6061C63.6571 37.3538 63.7312 37.3538 63.8286 37.3538H64.0417L63.8517 36.1759L63.1925 37.3538Z" />
<path d="M65.9475 38.466C66.0546 38.4725 66.1619 38.4589 66.2638 38.4256C66.2953 38.4102 66.3232 38.3885 66.3459 38.362C66.3686 38.3354 66.3856 38.3045 66.3959 38.2712C66.4121 38.2251 66.4446 38.0949 66.4932 37.8782C66.5419 37.6615 66.5905 37.4172 66.6415 37.1371L66.8466 35.9961H66.5187C66.3703 35.9824 66.2218 36.0212 66.0993 36.1056C65.9969 36.2206 65.934 36.3651 65.9197 36.5182L65.6382 36.4778C65.6788 36.3338 65.7135 36.1828 65.7436 36.026C65.7738 35.8693 65.7993 35.7033 65.8201 35.5293C65.9387 35.5512 66.0587 35.5646 66.1793 35.5696C66.338 35.58 66.5176 35.5846 66.718 35.5846C66.7945 35.5846 66.9173 35.5846 67.0876 35.5777H67.4919C67.8781 35.5777 68.1921 35.5739 68.4338 35.5662C68.6015 35.5637 68.769 35.5521 68.9355 35.5316C68.9065 35.6642 68.8799 35.8071 68.8555 35.9627C68.8312 36.1183 68.8092 36.2946 68.7895 36.494L68.5045 36.5205C68.5035 36.5109 68.5035 36.5013 68.5045 36.4917C68.5045 36.4352 68.5114 36.3949 68.5114 36.3695C68.5177 36.3177 68.512 36.2652 68.495 36.2159C68.4779 36.1666 68.4499 36.1218 68.413 36.0848C68.3481 36.0341 68.2056 36.0042 67.9866 35.9984H67.7352L67.5128 37.1993C67.4641 37.4517 67.4247 37.6788 67.3969 37.8782C67.3742 37.9998 67.358 38.1225 67.3482 38.2458C67.3448 38.2782 67.3495 38.3108 67.3621 38.3408C67.3746 38.3709 67.3946 38.3972 67.4201 38.4176C67.494 38.4577 67.5782 38.4753 67.6622 38.4683H67.7201L67.6761 38.738C67.4815 38.723 67.3089 38.7115 67.1594 38.7034C67.0099 38.6953 66.8848 38.6919 66.784 38.6919C66.7041 38.6919 66.6056 38.6919 66.4909 38.6999C66.3762 38.708 66.1769 38.7172 65.8954 38.738L65.9475 38.466Z" />
<path d="M69.2147 35.557C69.4 35.5731 69.5622 35.5846 69.7105 35.5915C69.8588 35.5985 69.9805 35.6031 70.0859 35.6031C70.1913 35.6031 70.3176 35.6031 70.4624 35.5915C70.6073 35.58 70.7671 35.5731 70.9467 35.557L70.8981 35.8209H70.817C70.7503 35.8183 70.6838 35.8269 70.62 35.8463C70.5756 35.8595 70.5374 35.8881 70.5123 35.9269C70.4306 36.1445 70.3746 36.3707 70.3454 36.6012C70.313 36.7844 70.2863 36.9296 70.2666 37.038L70.2226 37.25C70.174 37.5028 70.1353 37.7145 70.1068 37.8851C70.0864 37.9994 70.0733 38.1149 70.0674 38.2309C70.0629 38.2649 70.0667 38.2995 70.0784 38.3317C70.0901 38.364 70.1093 38.393 70.1346 38.4164C70.2127 38.4579 70.3013 38.4755 70.3895 38.4671H70.4613L70.4126 38.7368C70.1948 38.7195 70.0152 38.708 69.8751 38.7011C69.7349 38.6942 69.619 38.6907 69.5275 38.6907C69.436 38.6907 69.2958 38.6907 69.1544 38.7011C69.0131 38.7115 68.8231 38.7195 68.6006 38.7368L68.6539 38.4671H68.7953C68.8696 38.4711 68.944 38.459 69.0131 38.4314C69.066 38.4063 69.1074 38.3623 69.1289 38.3081C69.1673 38.183 69.199 38.0561 69.2239 37.9277C69.2668 37.7272 69.3155 37.484 69.3676 37.1993L69.3954 37.0311L69.4232 36.8789C69.5136 36.3891 69.5588 36.1079 69.5588 36.0376C69.5626 36.0052 69.5576 35.9724 69.5444 35.9426C69.5311 35.9128 69.5101 35.8871 69.4835 35.8681C69.3958 35.8309 69.3004 35.8155 69.2054 35.8232H69.1637L69.2147 35.557Z" />
<path d="M70.9676 37.4633C70.9674 37.2027 71.0185 36.9447 71.1182 36.7037C71.2171 36.464 71.3628 36.2462 71.5468 36.0629C71.7445 35.8651 71.9812 35.7101 72.242 35.6077C72.5131 35.5032 72.8016 35.4508 73.0924 35.4532C73.5488 35.4532 73.9118 35.5808 74.1814 35.8359C74.3177 35.969 74.4243 36.1294 74.4939 36.3063C74.5636 36.4833 74.5949 36.6729 74.5857 36.8628C74.585 37.137 74.5271 37.408 74.4156 37.6588C74.3041 37.9096 74.1415 38.1346 73.9381 38.3196C73.7519 38.4878 73.5342 38.6178 73.2974 38.7022C73.0466 38.7898 72.7824 38.8331 72.5166 38.8302C72.0369 38.8302 71.6585 38.7084 71.3812 38.4648C71.2422 38.3386 71.133 38.1833 71.0615 38.0102C70.99 37.837 70.9579 37.6502 70.9676 37.4633ZM72.9811 35.8877C72.8392 35.8837 72.6985 35.9154 72.5722 35.9799C72.4505 36.0478 72.349 36.1464 72.2779 36.2658C72.171 36.444 72.0951 36.6388 72.0531 36.842C71.9951 37.0825 71.9659 37.3289 71.9662 37.5762C71.9505 37.7897 72.0081 38.0023 72.1296 38.179C72.1892 38.2474 72.264 38.3011 72.348 38.3359C72.4321 38.3707 72.5231 38.3856 72.6139 38.3795C72.7401 38.3827 72.8652 38.3559 72.9788 38.3012C73.0895 38.2425 73.1842 38.1578 73.2546 38.0545C73.3745 37.8692 73.4608 37.6644 73.5094 37.4494C73.5773 37.1913 73.6119 36.9256 73.6126 36.6588C73.6279 36.4548 73.5731 36.2516 73.4573 36.0825C73.3979 36.0151 73.3235 35.9624 73.2401 35.9286C73.1566 35.8947 73.0664 35.8808 72.9765 35.8877H72.9811Z" />
<path d="M74.5417 38.466H74.6437C74.7226 38.4685 74.8012 38.456 74.8754 38.4291C74.9304 38.4085 74.975 38.367 74.9993 38.3138C75.0975 37.9886 75.1749 37.6576 75.2311 37.3227L75.2403 37.2719L75.2774 37.0737L75.2983 36.9746C75.4048 36.4214 75.4581 36.1148 75.4581 36.0526C75.4621 36.0181 75.4582 35.9833 75.4468 35.9505C75.4354 35.9178 75.4167 35.8881 75.3921 35.8635C75.3175 35.8204 75.2311 35.8019 75.1453 35.8105C75.1276 35.8096 75.1098 35.8096 75.092 35.8105H75.0364L75.0897 35.542L75.3655 35.5512C75.5659 35.5581 75.6945 35.5604 75.7536 35.5604H76.1509C76.239 35.5604 76.3213 35.5604 76.3966 35.5535C76.4628 35.7614 76.5584 35.9589 76.6804 36.1402L76.7059 36.1816L77.5945 37.6488L77.7509 36.7452C77.7903 36.5147 77.8181 36.3488 77.8332 36.237C77.8454 36.1576 77.8527 36.0775 77.8552 35.9972C77.8579 35.9701 77.854 35.9427 77.8437 35.9174C77.8334 35.8921 77.817 35.8696 77.7961 35.852C77.7349 35.8175 77.6646 35.8022 77.5945 35.8082H77.5319C77.5181 35.8071 77.5041 35.8071 77.4902 35.8082L77.5366 35.5397L77.7069 35.5466C77.9212 35.5547 78.066 35.5581 78.1402 35.5581C78.256 35.5581 78.4588 35.5524 78.7426 35.542H78.8261L78.789 35.8105C78.7751 35.8094 78.7612 35.8094 78.7473 35.8105H78.6835C78.475 35.8105 78.336 36.0307 78.2526 36.4732C78.234 36.5747 78.219 36.653 78.2085 36.7037L78.1912 36.7936C77.9873 37.8786 77.8853 38.5055 77.8853 38.6746C77.8853 38.6826 77.8853 38.693 77.8853 38.7057C77.8853 38.7184 77.8853 38.7287 77.8853 38.7345H77.1728C77.1284 38.5832 77.0591 38.4403 76.9677 38.3115C76.9446 38.277 76.9272 38.2481 76.9144 38.2286L75.8335 36.4421L75.662 37.4402C75.625 37.6603 75.5972 37.8344 75.5798 37.9646C75.5648 38.0585 75.5559 38.1532 75.5531 38.2481C75.5496 38.2813 75.5546 38.3148 75.5678 38.3455C75.581 38.3762 75.6019 38.403 75.6284 38.4233C75.713 38.4643 75.807 38.4818 75.9007 38.474H75.9378L75.8845 38.7449L75.4211 38.6976C75.3249 38.6896 75.2531 38.685 75.2067 38.685C75.1164 38.685 75.0167 38.685 74.9043 38.6965C74.792 38.708 74.6576 38.7161 74.4988 38.7311L74.5417 38.466Z" />
<path d="M78.3684 38.4614H78.4518C78.6511 38.4614 78.8902 38.2251 79.169 37.7526L80.0981 36.2162L80.1746 36.0894C80.2991 35.9027 80.4073 35.7057 80.4979 35.5005H81.3088C81.3227 35.6342 81.339 35.7621 81.3552 35.8831C81.3714 36.0042 81.3899 36.1136 81.4085 36.2185L81.756 38.1064C81.7637 38.2099 81.8011 38.3091 81.8638 38.3922C81.9348 38.4413 82.021 38.4638 82.1071 38.4556H82.1557L82.121 38.7253L82.0306 38.7184C81.6321 38.6915 81.3803 38.6784 81.2752 38.6792C81.1675 38.6792 81.0377 38.6792 80.8871 38.6907C80.7365 38.7022 80.572 38.7103 80.3913 38.7253L80.433 38.4556H80.5233C80.6139 38.4639 80.7048 38.4446 80.784 38.4003C80.8106 38.3767 80.8311 38.3471 80.8438 38.314C80.8565 38.2809 80.861 38.2453 80.857 38.2101C80.8585 38.1886 80.8585 38.1671 80.857 38.1456C80.857 38.1214 80.8501 38.0949 80.8454 38.0672L80.7898 37.7214L80.4677 37.7226H79.9823C79.8583 37.7226 79.7506 37.7226 79.6614 37.7226L79.5131 38.0027C79.4815 38.0573 79.4552 38.1148 79.4343 38.1744C79.4186 38.2161 79.41 38.2601 79.4088 38.3046C79.4073 38.3276 79.4123 38.3505 79.4231 38.3709C79.434 38.3912 79.4503 38.4082 79.4702 38.4199C79.536 38.4492 79.608 38.4619 79.6799 38.4568H79.7123L79.6706 38.7264H79.6498C79.3022 38.6976 79.0798 38.6838 78.9813 38.6838C78.9164 38.6838 78.8376 38.6838 78.7496 38.6919C78.6615 38.6999 78.5179 38.7103 78.3221 38.7299L78.3684 38.4614ZM79.8745 37.3538C79.9302 37.3538 79.9904 37.3538 80.046 37.3538H80.287C80.338 37.3538 80.4133 37.3538 80.5106 37.3538H80.7238L80.5338 36.1759L79.8745 37.3538Z" />
<path d="M82.8126 35.557C83.0328 35.5754 83.2031 35.5881 83.3259 35.5938C83.4487 35.5996 83.5506 35.6031 83.6352 35.6031C83.7395 35.6031 83.8669 35.6031 84.0002 35.5915C84.1334 35.58 84.3118 35.5731 84.5192 35.557L84.4729 35.8209H84.3779C84.2946 35.8152 84.2114 35.8319 84.1369 35.8693C84.0792 35.9082 84.038 35.9669 84.021 36.0341C83.9932 36.1348 83.9438 36.3895 83.8727 36.7982C83.8017 37.207 83.7244 37.6999 83.641 38.277L83.9816 38.2885H84.1589C84.4323 38.2885 84.6142 38.2539 84.7046 38.1824C84.7949 38.111 84.8598 37.9612 84.9038 37.7295L85.1981 37.7698C85.1599 37.9243 85.1251 38.081 85.0927 38.2412C85.0602 38.4014 85.0324 38.5639 85.0081 38.7322C84.6883 38.7149 84.4172 38.7022 84.1971 38.6965C83.977 38.6907 83.7719 38.6861 83.5877 38.6861C83.356 38.6861 83.1243 38.69 82.8926 38.6976C82.6609 38.7053 82.4353 38.7168 82.216 38.7322L82.2623 38.4614C82.2805 38.4626 82.2987 38.4626 82.3168 38.4614H82.399C82.4689 38.4654 82.5387 38.4532 82.6029 38.4256C82.6521 38.3983 82.6896 38.354 82.7084 38.3012C82.7401 38.207 82.7649 38.1107 82.7825 38.013C82.8134 37.864 82.8598 37.6158 82.9215 37.2685L82.9517 37.1325C82.9702 37.0172 82.9969 36.8766 83.0305 36.6911C83.1034 36.2946 83.1463 36.0664 83.1463 36.0099C83.1496 35.982 83.1463 35.9537 83.1367 35.9273C83.127 35.9008 83.1113 35.877 83.0907 35.8578C83.019 35.8224 82.9386 35.808 82.859 35.8163H82.764L82.8126 35.557Z" />
<path d="M88.7989 35.557C89.019 35.5754 89.1905 35.5881 89.3121 35.5938C89.4338 35.5996 89.5369 35.6031 89.6215 35.6031C89.7257 35.6031 89.8532 35.6031 89.9864 35.5915C90.1197 35.58 90.2981 35.5731 90.5055 35.557L90.4591 35.8209H90.3641C90.2813 35.8154 90.1984 35.8321 90.1243 35.8693C90.0663 35.9079 90.025 35.9667 90.0084 36.0341C89.9806 36.1344 89.932 36.3891 89.8601 36.7982C89.7883 37.2074 89.7107 37.7007 89.6284 38.277L89.969 38.2885H90.1463C90.4197 38.2885 90.6016 38.2539 90.692 38.1824C90.7823 38.111 90.8484 37.9612 90.8913 37.7295L91.1867 37.7698C91.1473 37.9243 91.1125 38.081 91.0801 38.2412C91.0477 38.4014 91.021 38.5639 90.9955 38.7322C90.6758 38.7149 90.4047 38.7022 90.1845 38.6965C89.9644 38.6907 89.7605 38.6861 89.5763 38.6861C89.3399 38.6861 89.1082 38.69 88.8812 38.6976C88.6541 38.7053 88.4286 38.7168 88.2046 38.7322L88.2509 38.4614C88.269 38.4625 88.2872 38.4625 88.3054 38.4614H88.3876C88.4575 38.4654 88.5273 38.4532 88.5915 38.4256C88.6407 38.3983 88.6782 38.354 88.697 38.3012C88.7287 38.207 88.7534 38.1107 88.7711 38.013C88.802 37.864 88.8483 37.6158 88.9101 37.2685L88.9402 37.1325C88.9588 37.0172 88.9854 36.8766 89.0202 36.6911C89.092 36.2946 89.1291 36.0664 89.1291 36.0099C89.1324 35.982 89.1291 35.9537 89.1195 35.9273C89.1098 35.9008 89.0941 35.877 89.0735 35.8578C89.0018 35.8222 88.9214 35.8078 88.8418 35.8163H88.7468L88.7989 35.557Z" />
<path d="M91.7671 35.557C91.9525 35.5731 92.1147 35.5846 92.263 35.5915C92.4113 35.5985 92.5318 35.6031 92.6372 35.6031C92.7426 35.6031 92.8689 35.6031 93.0149 35.5915C93.1609 35.58 93.3196 35.5731 93.4992 35.557L93.4505 35.8209H93.3694C93.3024 35.8183 93.2355 35.8269 93.1713 35.8463C93.1274 35.8599 93.0897 35.8885 93.0647 35.9269C92.983 36.1445 92.927 36.3707 92.8979 36.6012C92.8654 36.7844 92.8388 36.9296 92.8191 37.038L92.7739 37.25C92.726 37.5028 92.6874 37.7145 92.658 37.8851C92.6384 37.9995 92.6252 38.115 92.6187 38.2309C92.6145 38.2649 92.6184 38.2994 92.6301 38.3316C92.6417 38.3638 92.6609 38.3929 92.6859 38.4164C92.7646 38.4574 92.8534 38.475 92.9419 38.4671H93.0137L92.9651 38.7368C92.7461 38.7195 92.5677 38.708 92.4275 38.7011C92.2873 38.6942 92.1715 38.6907 92.0799 38.6907C91.9884 38.6907 91.854 38.6907 91.708 38.7011C91.5621 38.7115 91.3767 38.7195 91.1531 38.7368L91.2075 38.4671H91.3582C91.4321 38.4713 91.5061 38.4591 91.5748 38.4314C91.6259 38.4057 91.6653 38.3616 91.6849 38.3081C91.7244 38.1833 91.7565 38.0563 91.781 37.9277C91.8235 37.7272 91.8714 37.4844 91.9247 37.1993L91.9525 37.0311L91.9803 36.8789C92.0695 36.3891 92.1147 36.1079 92.1147 36.0376C92.1188 36.0053 92.114 35.9726 92.101 35.9427C92.0879 35.9129 92.0671 35.8872 92.0405 35.8681C91.9529 35.831 91.8575 35.8156 91.7625 35.8232H91.7208L91.7671 35.557Z" />
<path d="M93.1597 38.4614C93.2487 38.4646 93.3377 38.4549 93.4239 38.4325C93.4768 38.4189 93.5232 38.387 93.5548 38.3427C93.5978 38.2579 93.6312 38.1686 93.6544 38.0764C93.6926 37.945 93.7633 37.6788 93.8629 37.2777L93.9197 37.061L93.9684 36.872C94.0981 36.3511 94.163 36.0622 94.163 36.0053C94.1662 35.9779 94.1617 35.9502 94.15 35.9252C94.1384 35.9002 94.12 35.8788 94.097 35.8635C94.0092 35.8298 93.9152 35.8153 93.8212 35.8209L93.8722 35.557C94.0217 35.5731 94.1584 35.5846 94.2847 35.5915C94.4109 35.5985 94.5245 35.6031 94.6253 35.6031C94.7029 35.6031 94.8014 35.6031 94.9196 35.5915C95.0377 35.58 95.1767 35.5731 95.3308 35.557C95.3314 35.5658 95.3314 35.5746 95.3308 35.5835C95.3308 35.5938 95.3308 35.61 95.3308 35.633C95.3708 36.0634 95.437 36.4911 95.529 36.9135C95.5718 37.1313 95.6054 37.3031 95.6286 37.4264C95.7174 37.2727 95.841 37.066 95.9993 36.8063C96.4496 36.0625 96.6782 35.6461 96.6852 35.557C96.8281 35.5731 96.9578 35.5846 97.0745 35.5915C97.1903 35.5996 97.2992 35.6031 97.3931 35.6031C97.4869 35.6031 97.5831 35.6031 97.707 35.5915C97.831 35.58 97.9723 35.5731 98.1334 35.557L98.0917 35.8209H98.0245C97.953 35.8178 97.8814 35.8259 97.8125 35.8451C97.7649 35.8597 97.724 35.8902 97.6966 35.9315C97.6578 36.0183 97.6306 36.1098 97.6155 36.2035C97.5854 36.3488 97.5387 36.6223 97.4753 37.0241L97.4382 37.2547V37.2754C97.3456 37.8747 97.2992 38.2005 97.2992 38.2528C97.2962 38.2835 97.3009 38.3146 97.3128 38.3431C97.3247 38.3717 97.3435 38.3968 97.3676 38.4164C97.4408 38.4562 97.5243 38.4734 97.6074 38.466H97.6642L97.612 38.7334C97.4406 38.7195 97.2853 38.708 97.1486 38.6999C97.0119 38.6919 96.8903 38.6873 96.7929 38.6873C96.7153 38.6873 96.6192 38.6873 96.5045 38.6953C96.3898 38.7034 96.2021 38.7138 95.9402 38.7334L95.9912 38.4683H96.1071C96.165 38.4701 96.2228 38.4631 96.2785 38.4475C96.3159 38.437 96.3476 38.4121 96.3666 38.3784C96.4079 38.2924 96.4375 38.2013 96.4546 38.1075C96.4855 37.9738 96.5307 37.7333 96.5902 37.386L96.8034 36.1897L95.8603 37.7468C95.734 37.9577 95.6286 38.1433 95.5498 38.3046C95.4795 38.4414 95.4195 38.5832 95.3702 38.7288H94.981V38.6896C94.9604 38.3828 94.9142 38.0783 94.8431 37.7791L94.8338 37.733L94.5395 36.29L94.2812 37.3918C94.2163 37.6776 94.1723 37.8797 94.1491 37.998C94.1305 38.0803 94.1189 38.164 94.1144 38.2481C94.1111 38.2782 94.1147 38.3085 94.1247 38.337C94.1347 38.3655 94.151 38.3915 94.1723 38.413C94.2314 38.4508 94.3016 38.4679 94.3716 38.4614H94.4445L94.3994 38.7288C94.2696 38.7138 94.1503 38.7022 94.0425 38.6942C93.9348 38.6861 93.8409 38.6827 93.7633 38.6827C93.71 38.6827 93.6417 38.6827 93.5606 38.6907C93.4795 38.6988 93.3289 38.7092 93.118 38.7288L93.1597 38.4614Z" />
<path d="M98.401 35.557C98.5864 35.5731 98.7486 35.5846 98.8969 35.5915C99.0452 35.5985 99.1668 35.6031 99.2711 35.6031C99.3754 35.6031 99.5028 35.6031 99.6488 35.5915C99.7948 35.58 99.9535 35.5731 100.133 35.557L100.084 35.8209H100.003C99.9363 35.8185 99.8694 35.827 99.8052 35.8463C99.7613 35.8599 99.7236 35.8885 99.6986 35.9269C99.6169 36.1445 99.5609 36.3707 99.5318 36.6012C99.4993 36.7844 99.4727 36.9296 99.453 37.038L99.409 37.25C99.3603 37.5028 99.3217 37.7145 99.2931 37.8851C99.2726 37.9994 99.2591 38.1149 99.2526 38.2309C99.2482 38.265 99.2522 38.2996 99.2641 38.3319C99.276 38.3642 99.2955 38.3932 99.3209 38.4164C99.399 38.4579 99.4877 38.4755 99.5758 38.4671H99.6476L99.599 38.7368C99.3812 38.7195 99.2016 38.708 99.0614 38.7011C98.9212 38.6942 98.8053 38.6907 98.7138 38.6907C98.6223 38.6907 98.4879 38.6907 98.3419 38.7011C98.196 38.7115 98.0106 38.7195 97.7881 38.7368L97.8414 38.4671H97.9828C98.0571 38.4711 98.1315 38.459 98.2006 38.4314C98.2513 38.4052 98.2905 38.3613 98.3106 38.3081C98.349 38.183 98.3807 38.0561 98.4056 37.9277C98.4485 37.7272 98.4972 37.484 98.5493 37.1993L98.5771 37.0311L98.6049 36.8789C98.6953 36.3891 98.7405 36.1079 98.7405 36.0376C98.7443 36.0052 98.7393 35.9724 98.7261 35.9426C98.7128 35.9128 98.6918 35.8871 98.6652 35.8681C98.5775 35.8309 98.4821 35.8155 98.3871 35.8232H98.3454L98.401 35.557Z" />
<path d="M100.521 38.466C100.628 38.4725 100.736 38.4589 100.837 38.4256C100.869 38.41 100.897 38.3883 100.919 38.3618C100.942 38.3353 100.959 38.3044 100.97 38.2712C100.986 38.2251 101.018 38.0949 101.067 37.8782C101.116 37.6615 101.164 37.4172 101.215 37.1371L101.419 35.9961H101.09C100.942 35.9824 100.793 36.0212 100.671 36.1056C100.568 36.2206 100.505 36.3651 100.491 36.5182L100.205 36.4778C100.245 36.3338 100.28 36.1828 100.31 36.026C100.34 35.8693 100.366 35.7033 100.387 35.5293C100.505 35.5512 100.625 35.5646 100.746 35.5696C100.905 35.58 101.084 35.5846 101.285 35.5846C101.361 35.5846 101.484 35.5846 101.654 35.5777H102.066C102.452 35.5777 102.766 35.5739 103.007 35.5662C103.175 35.5637 103.343 35.5521 103.509 35.5316C103.48 35.6642 103.453 35.8071 103.429 35.9627C103.405 36.1183 103.383 36.2946 103.363 36.494L103.078 36.5205C103.077 36.5109 103.077 36.5013 103.078 36.4917C103.078 36.4352 103.085 36.3949 103.085 36.3695C103.091 36.3177 103.086 36.2652 103.069 36.2159C103.052 36.1666 103.024 36.1218 102.987 36.0848C102.922 36.0341 102.779 36.0042 102.56 35.9984H102.309L102.086 37.1993C102.038 37.4517 101.998 37.6788 101.971 37.8782C101.943 38.0776 101.923 38.2009 101.923 38.2458C101.92 38.2782 101.924 38.3108 101.937 38.3408C101.949 38.3709 101.969 38.3972 101.995 38.4176C102.069 38.4577 102.153 38.4753 102.237 38.4683H102.295L102.251 38.738C102.056 38.723 101.884 38.7115 101.734 38.7034C101.585 38.6953 101.46 38.6919 101.359 38.6919C101.279 38.6919 101.18 38.6919 101.066 38.6999C100.951 38.708 100.752 38.7172 100.47 38.738L100.521 38.466Z" />
<path d="M103.252 38.4602C103.264 38.4615 103.277 38.4615 103.289 38.4602H103.347C103.418 38.4625 103.488 38.4512 103.554 38.4268C103.604 38.4096 103.646 38.3742 103.67 38.3277C103.708 38.2402 103.736 38.149 103.754 38.0557C103.786 37.9174 103.833 37.673 103.897 37.325L103.92 37.1867C104.006 36.7256 104.061 36.4202 104.084 36.2704C104.101 36.1793 104.113 36.0874 104.12 35.9949C104.123 35.9677 104.119 35.94 104.107 35.9153C104.095 35.8905 104.076 35.8697 104.052 35.8555C103.957 35.8228 103.856 35.8091 103.756 35.8151L103.809 35.5466C103.964 35.5627 104.13 35.5743 104.307 35.5812C104.485 35.5881 104.695 35.5927 104.94 35.5927H105.204C105.562 35.5927 105.837 35.5889 106.029 35.5812C106.221 35.5735 106.403 35.562 106.575 35.5466C106.541 35.701 106.512 35.8474 106.489 35.988C106.466 36.1286 106.447 36.2658 106.433 36.4018H106.17C106.172 36.3907 106.172 36.3795 106.17 36.3684C106.17 36.3545 106.17 36.3361 106.17 36.3119C106.177 36.2622 106.171 36.2116 106.154 36.1645C106.137 36.1173 106.109 36.075 106.072 36.041C106.006 35.9949 105.852 35.9719 105.608 35.9719C105.493 35.9719 105.315 35.9719 105.067 35.9788H104.998L104.975 36.101C104.888 36.5359 104.836 36.8009 104.819 36.8962H105.428C105.527 36.9069 105.627 36.8868 105.714 36.8386C105.773 36.7705 105.808 36.6851 105.813 36.5954L106.082 36.6254C106.041 36.7913 106.006 36.9538 105.979 37.1129C105.952 37.2719 105.932 37.4275 105.918 37.5797L105.655 37.5866C105.655 37.5647 105.655 37.5416 105.661 37.5151C105.666 37.4886 105.661 37.4725 105.661 37.4667C105.665 37.4337 105.66 37.4002 105.646 37.3698C105.633 37.3394 105.611 37.3131 105.584 37.2938C105.478 37.2548 105.365 37.2395 105.253 37.2489H105.064C104.972 37.2489 104.898 37.2489 104.839 37.2489H104.753C104.746 37.2846 104.735 37.3492 104.716 37.4448C104.658 37.7637 104.609 38.0445 104.569 38.2873L105.041 38.2965H105.315C105.562 38.2965 105.732 38.2608 105.825 38.1894C105.918 38.1179 105.991 37.9704 106.046 37.7468L106.328 37.7894C106.292 37.9289 106.258 38.0741 106.226 38.2274C106.193 38.3807 106.164 38.5397 106.134 38.708C105.856 38.6907 105.606 38.678 105.384 38.6723C105.161 38.6665 104.948 38.6619 104.744 38.6619C104.54 38.6619 104.322 38.6619 104.079 38.6723C103.836 38.6827 103.54 38.6907 103.193 38.708L103.252 38.4602Z" />
<path d="M106.41 38.4614H106.496C106.565 38.4641 106.634 38.4555 106.701 38.436C106.745 38.4231 106.783 38.3949 106.809 38.3565C106.853 38.2804 106.918 38.0107 107.004 37.5497C107.029 37.4252 107.048 37.3273 107.06 37.2558L107.099 37.053C107.177 36.6404 107.228 36.3714 107.255 36.2462C107.27 36.17 107.282 36.0931 107.289 36.0157C107.292 35.9862 107.287 35.9566 107.275 35.9296C107.263 35.9025 107.244 35.879 107.22 35.8612C107.149 35.8229 107.069 35.806 106.988 35.8128C106.974 35.8119 106.959 35.8119 106.944 35.8128H106.898L106.949 35.5581C106.986 35.5581 107.037 35.565 107.102 35.5673C107.368 35.5858 107.551 35.595 107.652 35.595C107.803 35.595 107.982 35.5881 108.193 35.572C108.404 35.5558 108.541 35.5489 108.604 35.5489C109.167 35.5489 109.592 35.6557 109.879 35.8693C110.165 36.0829 110.307 36.4022 110.305 36.8271C110.315 37.0901 110.263 37.3518 110.154 37.5917C110.045 37.8316 109.882 38.0432 109.677 38.2101C109.258 38.5582 108.699 38.7322 108 38.7322C107.946 38.7322 107.826 38.7241 107.638 38.7092C107.45 38.6942 107.291 38.6861 107.152 38.6861C107.059 38.6861 106.951 38.6861 106.828 38.6953C106.706 38.7045 106.55 38.7138 106.365 38.7322L106.41 38.4614ZM107.759 38.2712C107.842 38.2827 107.914 38.2896 107.974 38.2942C108.034 38.2989 108.09 38.3012 108.126 38.3012C108.292 38.3082 108.457 38.276 108.608 38.2073C108.759 38.1386 108.892 38.0353 108.995 37.9058C109.208 37.6408 109.315 37.2839 109.315 36.8351C109.332 36.6033 109.256 36.3743 109.104 36.1978C109.021 36.1217 108.923 36.0633 108.816 36.0262C108.71 35.9891 108.597 35.9742 108.484 35.9823C108.45 35.9823 108.409 35.9823 108.355 35.9823L108.184 35.9961C108.105 36.3718 108.03 36.7487 107.96 37.1256C107.891 37.5024 107.822 37.8874 107.759 38.2712Z" />
<path d="M10.4678 3.27321C10.4678 3.92054 10.2749 4.55334 9.91336 5.09159C9.55187 5.62984 9.03806 6.04937 8.43691 6.29715C7.83575 6.54493 7.17424 6.60981 6.53602 6.48361C5.89779 6.3574 5.31152 6.04578 4.85131 5.58813C4.39111 5.13047 4.07765 4.54735 3.95056 3.91249C3.82347 3.27762 3.88847 2.61953 4.13733 2.0214C4.38618 1.42328 4.80773 0.911999 5.34866 0.552196C5.8896 0.192392 6.52563 0.000228136 7.17634 2.0293e-07C7.60852 -0.000151185 8.03651 0.0844012 8.43584 0.248828C8.83517 0.413254 9.19802 0.654333 9.50368 0.958294C9.80933 1.26225 10.0518 1.62314 10.2172 2.02034C10.3827 2.41754 10.4678 2.84327 10.4678 3.27321Z" />
<path d="M3.47939 10.5411H10.8026L20.37 34.0322L25.8569 21.1376C27.9276 16.2792 29.2905 12.7471 29.9454 10.5411H37.9163V11.6061C36.6226 11.636 35.7193 11.8508 35.2064 12.2503C34.6936 12.6499 34.4364 13.3833 34.4348 14.4505C34.4348 14.5981 34.4348 14.7686 34.4557 14.9611L36.1541 32.6895C36.3619 34.8677 36.7075 36.2673 37.191 36.8881C37.6745 37.509 38.6539 37.8428 40.1291 37.8897V38.9558H29.1437V37.8897C30.2613 37.8597 31.0503 37.6373 31.5106 37.2224C31.971 36.8075 32.2027 36.0007 32.2058 34.8021C32.205 34.5494 32.1895 34.2969 32.1594 34.046L30.4077 16.4121C27.8689 20.8994 26.0562 24.4096 24.9694 26.9429L19.3586 40H18.3529L7.90159 14.1393L7.14274 22.1149C6.80058 25.7147 6.62989 28.5657 6.63066 30.6679C6.63066 35.3487 7.80621 37.756 10.1573 37.8897V38.9558H0.0639648V37.8897C1.10589 37.6507 1.93233 36.9876 2.54327 35.9004C3.15422 34.8132 3.78331 32.8735 4.43056 30.0813C5.10187 27.1346 5.57561 24.1467 5.84863 21.1376L6.40474 15.2273C6.42096 14.9461 6.42675 14.643 6.42675 14.3168C6.42675 13.2657 6.21937 12.5584 5.80461 12.195C5.38985 11.8316 4.61477 11.6353 3.47939 11.6061V10.5411Z" />
<path d="M60.2845 28.0067C60.076 28.9068 59.1364 32.4716 58.7877 33.5101H41.8728V32.5408C45.1086 32.2987 45.3484 31.9876 45.3484 29.1489V15.4728C45.3484 12.3921 44.9661 12.2192 42.3559 11.9772V11.0079H53.01C56.2806 11.0079 57.6442 10.9733 58.0555 10.9387C58.0902 11.8031 58.2293 14.3964 58.3683 16.2404L57.3256 16.4133C57.0874 15.4975 56.7372 14.6142 56.2829 13.7832C55.7268 12.6399 54.9251 12.4002 52.8373 12.4002H49.5343C48.4557 12.4002 48.3862 12.5039 48.3862 13.5078V21.1583H52.2488C54.8579 21.1583 55.0293 20.6385 55.4499 18.285H56.5285V25.4158H55.4429C54.9899 22.924 54.7119 22.5771 52.2071 22.5771H48.3838V29.4658C48.3838 31.8861 49.1497 32.097 50.8898 32.1316H54.1256C56.2481 32.1316 56.5957 31.8204 57.3615 30.9203C58.023 30.1931 58.7518 28.7743 59.2407 27.7358L60.2845 28.0067Z" />
<path d="M72.3972 11.0079C77.3037 11.0079 80.4005 11.9772 82.5578 14.0195C84.262 15.6814 85.5156 18.1041 85.5156 21.4268C85.5156 25.4769 83.8449 28.7662 81.1663 30.7739C78.5214 32.7471 75.1418 33.5078 70.8656 33.5078H62.7233V32.5385C65.7158 32.2619 65.8514 32.0198 65.8514 29.1811V15.3691C65.8514 12.3921 65.4343 12.2572 62.7233 11.9772V11.0079H72.3972ZM68.8822 28.9045C68.8822 31.5 69.9955 32.2273 72.6058 32.2273C78.8689 32.2273 82.07 27.9698 82.07 21.9121C82.07 18.1387 80.7829 15.2654 78.0348 13.6034C76.4336 12.5996 74.4154 12.2204 72.0844 12.2204C70.5181 12.2204 69.6827 12.4278 69.3352 12.7044C69.0224 12.9084 68.8822 13.2922 68.8822 14.6372V28.9045Z" />
<path d="M88.8951 33.5078V32.5385C91.7486 32.2273 92.0232 32.089 92.0232 29.1465V15.4037C92.0232 12.4267 91.7451 12.2918 88.8951 11.9772V11.0079H98.2214V11.9772C95.3332 12.2884 95.0539 12.4267 95.0539 15.4037V29.1465C95.0539 32.1236 95.3332 32.2273 98.2214 32.5385V33.5078H88.8951Z" />
<path d="M114.021 33.5078V32.5385C116.283 32.2619 116.561 31.9161 116.075 30.5999C115.622 29.2503 114.925 27.5203 114.196 25.3386H106.679C106.122 26.8968 105.6 28.2464 105.114 29.6663C104.348 31.9161 104.834 32.1927 107.688 32.5385V33.5078H99.6499V32.5385C101.843 32.2619 102.399 32.0198 103.617 28.9045L110.822 10.7301L111.934 10.5227C114.127 16.4421 116.528 22.9851 118.72 28.9737C119.834 31.9852 120.147 32.2619 122.617 32.5385V33.5078H114.021ZM110.545 15.0579C109.432 18.0349 108.248 21.1848 107.205 23.9198H113.711L110.545 15.0579Z" />
</svg>
