<svg viewBox="0 0 24 24" xmlns="http://www.w3.org/2000/svg">
<rect fill="none" x="2.625" y="2.625" width="18.75" height="18.75" stroke="currentColor" stroke-width="1.25"/>
<path data-name="horizontal-line" d="M17.2734 11.4434H6.72656C6.66211 11.4434 6.60938 11.4961 6.60938 11.5605V12.4395C6.60938 12.5039 6.66211 12.5566 6.72656 12.5566H17.2734C17.3379 12.5566 17.3906 12.5039 17.3906 12.4395V11.5605C17.3906 11.4961 17.3379 11.4434 17.2734 11.4434Z" fill="currentColor"/>
<path data-name="vertical-line" d="M11.4434 6.72656L11.4434 17.2734C11.4434 17.3379 11.4961 17.3906 11.5605 17.3906L12.4395 17.3906C12.5039 17.3906 12.5566 17.3379 12.5566 17.2734L12.5566 6.72656C12.5566 6.66211 12.5039 6.60937 12.4395 6.60937L11.5605 6.60937C11.4961 6.60937 11.4434 6.66211 11.4434 6.72656Z" fill="currentColor"/>
</svg>
