<svg viewBox="0 0 24 24" xmlns="http://www.w3.org/2000/svg">
<path fill-rule="evenodd" clip-rule="evenodd" d="M22.5303 6.46967C22.8232 6.76256 22.8232 7.23744 22.5303 7.53033L12.5303 17.5303C12.2374 17.8232 11.7626 17.8232 11.4697 17.5303L10.8447 16.9053C10.5518 16.6124 10.5518 16.1376 10.8447 15.8447C11.1376 15.5518 11.6124 15.5518 11.9053 15.8447L12 15.9393L21.4697 6.46967C21.7626 6.17678 22.2374 6.17678 22.5303 6.46967ZM6.46967 11.4697C6.76256 11.1768 7.23744 11.1768 7.53033 11.4697L8.15533 12.0947C8.44822 12.3876 8.44822 12.8624 8.15533 13.1553C7.86244 13.4482 7.38756 13.4482 7.09467 13.1553L6.46967 12.5303C6.17678 12.2374 6.17678 11.7626 6.46967 11.4697Z" />
<path fill-rule="evenodd" clip-rule="evenodd" d="M17.5303 6.46967C17.8232 6.76256 17.8232 7.23744 17.5303 7.53033L7.53033 17.5303C7.23744 17.8232 6.76256 17.8232 6.46967 17.5303L1.46967 12.5303C1.17678 12.2374 1.17678 11.7626 1.46967 11.4697C1.76256 11.1768 2.23744 11.1768 2.53033 11.4697L7 15.9393L16.4697 6.46967C16.7626 6.17678 17.2374 6.17678 17.5303 6.46967Z" />
</svg>
