<svg viewBox="0 0 24 24" xmlns="http://www.w3.org/2000/svg">
<path d="M3.875 3.25C3.70924 3.25 3.55027 3.31585 3.43306 3.43306C3.31585 3.55027 3.25 3.70924 3.25 3.875V8.875C3.25 9.04076 3.18415 9.19973 3.06694 9.31694C2.94973 9.43415 2.79076 9.5 2.625 9.5C2.45924 9.5 2.30027 9.43415 2.18306 9.31694C2.06585 9.19973 2 9.04076 2 8.875V3.875C2 3.37772 2.19754 2.90081 2.54917 2.54917C2.90081 2.19754 3.37772 2 3.875 2H8.875C9.04076 2 9.19973 2.06585 9.31694 2.18306C9.43415 2.30027 9.5 2.45924 9.5 2.625C9.5 2.79076 9.43415 2.94973 9.31694 3.06694C9.19973 3.18415 9.04076 3.25 8.875 3.25H3.875ZM14.5 2.625C14.5 2.45924 14.5658 2.30027 14.6831 2.18306C14.8003 2.06585 14.9592 2 15.125 2H20.125C20.6223 2 21.0992 2.19754 21.4508 2.54917C21.8025 2.90081 22 3.37772 22 3.875V8.875C22 9.04076 21.9342 9.19973 21.8169 9.31694C21.6997 9.43415 21.5408 9.5 21.375 9.5C21.2092 9.5 21.0503 9.43415 20.9331 9.31694C20.8158 9.19973 20.75 9.04076 20.75 8.875V3.875C20.75 3.70924 20.6842 3.55027 20.5669 3.43306C20.4497 3.31585 20.2908 3.25 20.125 3.25H15.125C14.9592 3.25 14.8003 3.18415 14.6831 3.06694C14.5658 2.94973 14.5 2.79076 14.5 2.625ZM2.625 14.5C2.79076 14.5 2.94973 14.5658 3.06694 14.6831C3.18415 14.8003 3.25 14.9592 3.25 15.125V20.125C3.25 20.2908 3.31585 20.4497 3.43306 20.5669C3.55027 20.6842 3.70924 20.75 3.875 20.75H8.875C9.04076 20.75 9.19973 20.8158 9.31694 20.9331C9.43415 21.0503 9.5 21.2092 9.5 21.375C9.5 21.5408 9.43415 21.6997 9.31694 21.8169C9.19973 21.9342 9.04076 22 8.875 22H3.875C3.37772 22 2.90081 21.8025 2.54917 21.4508C2.19754 21.0992 2 20.6223 2 20.125V15.125C2 14.9592 2.06585 14.8003 2.18306 14.6831C2.30027 14.5658 2.45924 14.5 2.625 14.5ZM21.375 14.5C21.5408 14.5 21.6997 14.5658 21.8169 14.6831C21.9342 14.8003 22 14.9592 22 15.125V20.125C22 20.6223 21.8025 21.0992 21.4508 21.4508C21.0992 21.8025 20.6223 22 20.125 22H15.125C14.9592 22 14.8003 21.9342 14.6831 21.8169C14.5658 21.6997 14.5 21.5408 14.5 21.375C14.5 21.2092 14.5658 21.0503 14.6831 20.9331C14.8003 20.8158 14.9592 20.75 15.125 20.75H20.125C20.2908 20.75 20.4497 20.6842 20.5669 20.5669C20.6842 20.4497 20.75 20.2908 20.75 20.125V15.125C20.75 14.9592 20.8158 14.8003 20.9331 14.6831C21.0503 14.5658 21.2092 14.5 21.375 14.5Z" />
</svg>
