<svg viewBox="0 0 25 24" xmlns="http://www.w3.org/2000/svg">
<path d="M15.9501 4.4667L8.4251 6.9667C3.36676 8.65837 3.36676 11.4167 8.4251 13.1L10.6584 13.8417L11.4001 16.075C13.0834 21.1334 15.8501 21.1334 17.5334 16.075L20.0418 8.55837C21.1584 5.18337 19.3251 3.3417 15.9501 4.4667ZM16.2168 8.95004L13.0501 12.1334C12.9251 12.2584 12.7668 12.3167 12.6084 12.3167C12.4501 12.3167 12.2918 12.2584 12.1668 12.1334C11.9251 11.8917 11.9251 11.4917 12.1668 11.25L15.3334 8.0667C15.5751 7.82504 15.9751 7.82504 16.2168 8.0667C16.4584 8.30837 16.4584 8.70837 16.2168 8.95004Z" />
</svg>
