<svg viewBox="0 0 24 24" xmlns="http://www.w3.org/2000/svg">
<path fill-rule="evenodd" clip-rule="evenodd" d="M10.1235 17.0023C11.0262 17.0023 11.92 16.8245 12.754 16.4789C13.5879 16.1334 14.3457 15.6269 14.984 14.9884C15.6223 14.3499 16.1286 13.5919 16.474 12.7576C16.8195 11.9234 16.9972 11.0293 16.9972 10.1263C16.9972 9.22329 16.8195 8.32916 16.474 7.49491C16.1286 6.66067 15.6223 5.90265 14.984 5.26415C14.3457 4.62565 13.5879 4.11916 12.754 3.77361C11.92 3.42805 11.0262 3.2502 10.1235 3.2502C8.30048 3.2502 6.55212 3.97464 5.26304 5.26415C3.97397 6.55367 3.24977 8.30262 3.24977 10.1263C3.24977 11.9499 3.97397 13.6989 5.26304 14.9884C6.55212 16.2779 8.30048 17.0023 10.1235 17.0023ZM18.247 10.1263C18.247 12.2815 17.3911 14.3484 15.8677 15.8724C14.3442 17.3964 12.278 18.2525 10.1235 18.2525C7.96902 18.2525 5.90277 17.3964 4.37932 15.8724C2.85587 14.3484 2 12.2815 2 10.1263C2 7.97105 2.85587 5.9041 4.37932 4.38013C5.90277 2.85616 7.96902 2 10.1235 2C12.278 2 14.3442 2.85616 15.8677 4.38013C17.3911 5.9041 18.247 7.97105 18.247 10.1263Z" />
<path d="M14.9297 16.6787C14.9672 16.7287 15.0072 16.7762 15.0522 16.8225L19.8638 21.6357C20.0981 21.8703 20.416 22.0022 20.7476 22.0023C21.0791 22.0024 21.3971 21.8708 21.6316 21.6364C21.8661 21.4019 21.9979 21.0839 21.998 20.7523C21.9981 20.4207 21.8665 20.1025 21.6322 19.868L16.8206 15.0547C16.7759 15.0095 16.7279 14.9677 16.6769 14.9297C16.1866 15.5984 15.5975 16.1886 14.9297 16.68V16.6787Z" />
<path fill-rule="evenodd" clip-rule="evenodd" d="M10.1242 5.75C10.2899 5.75 10.4489 5.81586 10.5661 5.93309C10.6832 6.05032 10.7491 6.20931 10.7491 6.3751V9.50059H13.8735C14.0392 9.50059 14.1982 9.56645 14.3154 9.68367C14.4326 9.8009 14.4984 9.9599 14.4984 10.1257C14.4984 10.2915 14.4326 10.4505 14.3154 10.5677C14.1982 10.6849 14.0392 10.7508 13.8735 10.7508H10.7491V13.8763C10.7491 14.0421 10.6832 14.2011 10.5661 14.3183C10.4489 14.4355 10.2899 14.5014 10.1242 14.5014C9.95847 14.5014 9.79952 14.4355 9.68234 14.3183C9.56515 14.2011 9.49931 14.0421 9.49931 13.8763V10.7508H6.37489C6.20916 10.7508 6.05021 10.6849 5.93302 10.5677C5.81584 10.4505 5.75 10.2915 5.75 10.1257C5.75 9.9599 5.81584 9.8009 5.93302 9.68367C6.05021 9.56645 6.20916 9.50059 6.37489 9.50059H9.49931V6.3751C9.49931 6.20931 9.56515 6.05032 9.68234 5.93309C9.79952 5.81586 9.95847 5.75 10.1242 5.75Z" />
</svg>
