<svg viewBox="0 0 155 155" xmlns="http://www.w3.org/2000/svg">
<g fill="none">
<path d="M109.816 115.915C113.17 115.915 115.914 118.659 115.914 122.013V134.208C115.914 137.561 113.17 140.305 109.816 140.305C106.463 140.305 103.719 137.561 103.719 134.208V122.013C103.719 118.659 106.463 115.915 109.816 115.915Z" stroke="currentColor" stroke-width="4.5302" stroke-miterlimit="22.926" stroke-linecap="round" stroke-linejoin="round"/>
<path d="M93.0479 115.915V140.305" stroke="currentColor" stroke-width="4.5302" stroke-miterlimit="22.926" stroke-linecap="round" stroke-linejoin="round"/>
<path d="M91.831 131.16H80.8555V115.916" stroke="currentColor" stroke-width="4.5302" stroke-miterlimit="22.926" stroke-linecap="round" stroke-linejoin="round"/>
<path d="M138.781 115.915V140.305" stroke="currentColor" stroke-width="4.5302" stroke-miterlimit="22.926" stroke-linecap="round" stroke-linejoin="round"/>
<path d="M137.564 131.16H126.588V115.916" stroke="currentColor" stroke-width="4.5302" stroke-miterlimit="22.926" stroke-linecap="round" stroke-linejoin="round"/>
<path d="M67.1348 152.5H152.5V103.719H67.1348V152.5Z" stroke="currentColor" stroke-width="4.5302" stroke-miterlimit="22.926" stroke-linecap="round" stroke-linejoin="round"/>
<path d="M65.9647 136.549C30.3751 134.632 2.5 105.215 2.5 69.5733C2.5 32.5301 32.5296 2.50037 69.5726 2.50037C106.616 2.50037 136.645 32.5301 136.645 69.5733C136.645 81.19 133.628 92.6074 127.89 102.708" stroke="currentColor" stroke-width="4.5302" stroke-miterlimit="22.926" stroke-linecap="round" stroke-linejoin="round"/>
<path d="M57.7855 38.3899C89.8148 9.55979 122.13 -4.7356 133.005 6.13998C138.635 11.7692 137.672 23.5509 130.321 39.006M39.0063 130.321C23.5507 137.673 11.7684 138.636 6.13951 133.007C-4.73601 122.131 9.55961 89.815 38.3902 57.7852" stroke="currentColor" stroke-width="4.5302" stroke-miterlimit="22.926" stroke-linecap="round" stroke-linejoin="round"/>
<path d="M100.548 70.2354C107.264 70.2354 112.743 64.757 112.743 58.0403C112.743 51.3232 107.264 45.8449 100.548 45.8449C93.8309 45.8449 88.3525 51.3232 88.3525 58.0403C88.3525 64.757 93.8309 70.2354 100.548 70.2354Z" stroke="currentColor" stroke-width="4.5302" stroke-miterlimit="22.926" stroke-linecap="round" stroke-linejoin="round"/>
<path d="M47.1967 96.6978C51.361 96.6978 54.7576 93.3014 54.7576 89.1368C54.7576 84.9725 51.361 81.5759 47.1967 81.5759C43.0321 81.5759 39.6357 84.9725 39.6357 89.1368C39.6357 93.3014 43.0321 96.6978 47.1967 96.6978Z" stroke="currentColor" stroke-width="4.5302" stroke-miterlimit="22.926" stroke-linecap="round" stroke-linejoin="round"/>
<path d="M47.8369 47.835H47.8391" stroke="currentColor" stroke-width="4.5302" stroke-miterlimit="2.613" stroke-linecap="round" stroke-linejoin="round"/>
</g>
</svg>
