<svg viewBox="0 0 24 24" fill="none" xmlns="http://www.w3.org/2000/svg">
<path d="M14.6354 21.0144C14.0909 21.0144 13.6495 20.573 13.6495 20.0285V19.1224L12.6237 18.0966C12.2387 17.7116 12.2387 17.0874 12.6237 16.7023C13.0087 16.3173 13.6329 16.3173 14.018 16.7023L15.3325 18.0169C15.5174 18.2018 15.6212 18.4525 15.6212 18.714V20.0285C15.6213 20.573 15.1799 21.0144 14.6354 21.0144Z" fill="#463C4B"/>
<path d="M17.2644 15.7564C17.2644 15.2119 16.823 14.7705 16.2785 14.7705H14.6353C14.0908 14.7705 13.6494 15.2119 13.6494 15.7564V16.4137C13.6494 16.9582 14.0908 17.3996 14.6353 17.3996H16.2785C16.823 17.3996 17.2644 16.9582 17.2644 16.4137H16.0272C16.1834 16.2392 16.2785 16.009 16.2785 15.7564H17.2644Z" fill="#463C4B"/>
<path d="M15.2926 14.7705H14.6353C14.0908 14.7705 13.6494 15.2119 13.6494 15.7564C13.6494 16.3009 14.0908 16.7423 14.6353 16.7423C15.1798 16.7423 15.6212 16.3009 15.6212 15.7564H16.2785C16.2785 15.2119 15.8371 14.7705 15.2926 14.7705Z" fill="#555A6E"/>
<path d="M14.6353 16.085C14.8168 16.085 14.9639 15.9379 14.9639 15.7564C14.9639 15.5749 14.8168 15.4277 14.6353 15.4277C14.4538 15.4277 14.3066 15.5749 14.3066 15.7564C14.3066 15.9379 14.4538 16.085 14.6353 16.085Z" fill="#5AD7FF"/>
<path d="M10.691 21.0144C10.1465 21.0144 9.70515 20.573 9.70515 20.0285V19.1224L8.67937 18.0966C8.29438 17.7116 8.29438 17.0874 8.67937 16.7023C9.0644 16.3173 9.68859 16.3173 10.0736 16.7023L11.3881 18.0169C11.573 18.2018 11.6769 18.4525 11.6769 18.714V20.0285C11.6769 20.573 11.2355 21.0144 10.691 21.0144Z" fill="#463C4B"/>
<path d="M9.70605 9.51221H13.6496V10.1695H9.70605V9.51221Z" fill="#463C4B"/>
<path d="M14.9633 17.3993H8.39066C8.02765 17.3993 7.7334 17.1051 7.7334 16.7421V10.8267C7.7334 10.4637 8.02765 10.1694 8.39066 10.1694H14.9633C15.3263 10.1694 15.6205 10.4637 15.6205 10.8267V16.7421C15.6205 17.105 15.3263 17.3993 14.9633 17.3993Z" fill="#A5C3DC"/>
<path d="M10.3624 17.3993H8.39066C8.02765 17.3993 7.7334 17.1051 7.7334 16.7421V10.8267C7.7334 10.4637 8.02765 10.1694 8.39066 10.1694H10.3624C10.7255 10.1694 11.0197 10.4637 11.0197 10.8267V16.7421C11.0197 17.105 10.7255 17.3993 10.3624 17.3993Z" fill="#D7E6F0"/>
<path d="M10.0338 16.4136H9.04792C8.32309 16.4136 7.7334 15.8239 7.7334 15.0991V11.8127H9.04792V15.0991H10.0338V16.4136Z" fill="#463C4B"/>
<path d="M13.65 11.4841H12.9927C12.8112 11.4841 12.6641 11.6313 12.6641 11.8128V15.7563C12.6641 15.9378 12.8112 16.085 12.9927 16.085H13.65C13.8314 16.085 13.9786 15.9378 13.9786 15.7563V11.8128C13.9786 11.6312 13.8315 11.4841 13.65 11.4841Z" fill="#463C4B"/>
<path d="M8.3912 13.4557C9.29869 13.4557 10.0344 12.7201 10.0344 11.8126C10.0344 10.9051 9.29869 10.1694 8.3912 10.1694C7.48371 10.1694 6.74805 10.9051 6.74805 11.8126C6.74805 12.7201 7.48371 13.4557 8.3912 13.4557Z" fill="#555A6E"/>
<path d="M7.89822 11.8128C8.17047 11.8128 8.39117 11.5921 8.39117 11.3199C8.39117 11.0476 8.17047 10.8269 7.89822 10.8269C7.62597 10.8269 7.40527 11.0476 7.40527 11.3199C7.40527 11.5921 7.62597 11.8128 7.89822 11.8128Z" fill="#73788C"/>
<path d="M12.6628 15.7564C12.6628 15.2119 12.2214 14.7705 11.6769 14.7705H10.0337C9.48924 14.7705 9.04785 15.2119 9.04785 15.7564V16.4137C9.04785 16.9582 9.48924 17.3996 10.0337 17.3996H11.6769C12.2214 17.3996 12.6628 16.9582 12.6628 16.4137H11.4257C11.5818 16.2392 11.6769 16.009 11.6769 15.7564H12.6628Z" fill="#463C4B"/>
<path d="M10.691 14.7705H10.0337C9.48924 14.7705 9.04785 15.2119 9.04785 15.7564C9.04785 16.3009 9.48924 16.7423 10.0337 16.7423C10.5782 16.7423 11.0196 16.3009 11.0196 15.7564H11.6769C11.6769 15.2119 11.2355 14.7705 10.691 14.7705Z" fill="#555A6E"/>
<path d="M10.0337 16.085C10.2152 16.085 10.3623 15.9379 10.3623 15.7564C10.3623 15.5749 10.2152 15.4277 10.0337 15.4277C9.85221 15.4277 9.70508 15.5749 9.70508 15.7564C9.70508 15.9379 9.85221 16.085 10.0337 16.085Z" fill="#FFCD05"/>
<path d="M13.3208 14.7705C13.1393 14.7705 12.9922 14.9177 12.9922 15.0991V15.4278C12.9922 15.6093 13.1393 15.7564 13.3208 15.7564C13.5023 15.7564 13.6494 15.6093 13.6494 15.4278V15.0991C13.6494 14.9176 13.5023 14.7705 13.3208 14.7705Z" fill="#FFCD05"/>
<path d="M12.3342 21.3431H9.04785V20.0286C9.04785 19.6656 9.3421 19.3713 9.70511 19.3713H11.6769C12.0399 19.3713 12.3342 19.6656 12.3342 20.0286V21.3431Z" fill="#A5C3DC"/>
<path d="M10.3624 21.3431H9.04785V20.0286C9.04785 19.6656 9.3421 19.3713 9.70511 19.3713C10.0681 19.3713 10.3624 19.6656 10.3624 20.0286V21.3431Z" fill="#D7E6F0"/>
<path d="M12.9914 22.0003H9.37648C9.195 22.0003 9.04785 21.8531 9.04785 21.6716V21.343H12.3342C12.6972 21.343 12.9914 21.6373 12.9914 22.0003Z" fill="#463C4B"/>
<path d="M9.70558 20.3572C9.88708 20.3572 10.0342 20.2101 10.0342 20.0286C10.0342 19.8471 9.88708 19.7 9.70558 19.7C9.52409 19.7 9.37695 19.8471 9.37695 20.0286C9.37695 20.2101 9.52409 20.3572 9.70558 20.3572Z" fill="#A5C3DC"/>
<path d="M16.2785 21.3431H12.9922V20.0286C12.9922 19.6656 13.2864 19.3713 13.6494 19.3713H15.6212C15.9842 19.3713 16.2785 19.6656 16.2785 20.0286V21.3431Z" fill="#A5C3DC"/>
<path d="M14.3067 21.3431H12.9922V20.0286C12.9922 19.6656 13.2864 19.3713 13.6494 19.3713C14.0125 19.3713 14.3067 19.6656 14.3067 20.0286V21.3431Z" fill="#D7E6F0"/>
<path d="M16.9358 22.0003H13.3208C13.1393 22.0003 12.9922 21.8531 12.9922 21.6716V21.343H16.2785C16.6415 21.343 16.9358 21.6373 16.9358 22.0003Z" fill="#463C4B"/>
<path d="M13.6489 20.3572C13.8304 20.3572 13.9776 20.2101 13.9776 20.0286C13.9776 19.8471 13.8304 19.7 13.6489 19.7C13.4674 19.7 13.3203 19.8471 13.3203 20.0286C13.3203 20.2101 13.4674 20.3572 13.6489 20.3572Z" fill="#A5C3DC"/>
<path d="M14.9633 9.51225H8.39066C8.02765 9.51225 7.7334 9.218 7.7334 8.85499V4.91141C7.7334 4.5484 8.02765 4.25415 8.39066 4.25415H14.9633C15.3263 4.25415 15.6205 4.5484 15.6205 4.91141V8.85499C15.6205 9.21796 15.3263 9.51225 14.9633 9.51225Z" fill="#A5C3DC"/>
<path d="M10.3624 9.51225H8.39066C8.02765 9.51225 7.7334 9.218 7.7334 8.85499V4.91141C7.7334 4.5484 8.02765 4.25415 8.39066 4.25415H10.3624C10.7255 4.25415 11.0197 4.5484 11.0197 4.91141V8.85499C11.0197 9.21796 10.7255 9.51225 10.3624 9.51225Z" fill="#D7E6F0"/>
<path d="M11.0205 8.19769V5.56864C11.0205 5.20563 11.3148 4.91138 11.6778 4.91138H12.335L12.6155 5.19186C12.6463 5.22267 12.6881 5.24001 12.7317 5.24001H13.9101C13.9537 5.24001 13.9954 5.22271 14.0262 5.19186L14.3067 4.91138H14.964C15.327 4.91138 15.6213 5.20563 15.6213 5.56864V8.19769C15.6213 8.5607 15.327 8.85495 14.964 8.85495H11.6777C11.3148 8.85495 11.0205 8.56066 11.0205 8.19769Z" fill="#555A6E"/>
<path d="M14.1424 8.19779H12.4993C12.4085 8.19779 12.335 8.12422 12.335 8.03347V7.70484C12.335 7.6141 12.4085 7.54053 12.4993 7.54053H14.1424C14.2332 7.54053 14.3067 7.6141 14.3067 7.70484V8.03347C14.3067 8.12422 14.2332 8.19779 14.1424 8.19779Z" fill="#FFCD05"/>
<path d="M9.37652 7.86925C9.92101 7.86925 10.3624 7.42785 10.3624 6.88335C10.3624 6.33886 9.92101 5.89746 9.37652 5.89746C8.83202 5.89746 8.39062 6.33886 8.39062 6.88335C8.39062 7.42785 8.83202 7.86925 9.37652 7.86925Z" fill="#A5C3DC"/>
<path d="M14.8669 6.44511L15.0794 6.23265C15.1436 6.16848 15.1436 6.06443 15.0794 6.0003C15.0153 5.9361 14.9111 5.9361 14.8471 6.0003L14.6346 6.21276L14.4221 6.0003C14.358 5.9361 14.2539 5.9361 14.1898 6.0003C14.1256 6.06447 14.1256 6.16852 14.1898 6.23265L14.4023 6.44511L14.1898 6.65752C14.1256 6.72169 14.1256 6.82574 14.1898 6.88987C14.2218 6.92195 14.2639 6.93801 14.3059 6.93801C14.348 6.93801 14.3901 6.92195 14.4221 6.88987L14.6346 6.67741L14.847 6.88987C14.8791 6.92195 14.9212 6.93801 14.9632 6.93801C15.0052 6.93801 15.0473 6.92195 15.0794 6.88987C15.1436 6.8257 15.1436 6.72165 15.0794 6.65752L14.8669 6.44511Z" fill="#FFCD05"/>
<path d="M12.4505 6.0003C12.3863 5.9361 12.2822 5.9361 12.2181 6.0003L12.0057 6.21276L11.7932 6.0003C11.7291 5.9361 11.6249 5.9361 11.5609 6.0003C11.4967 6.06447 11.4967 6.16852 11.5609 6.23265L11.7733 6.44511L11.5608 6.65757C11.4967 6.72173 11.4967 6.82578 11.5608 6.88991C11.5929 6.92199 11.635 6.93805 11.677 6.93805C11.719 6.93805 11.7611 6.92199 11.7932 6.88991L12.0056 6.67745L12.2181 6.88991C12.2501 6.92199 12.2922 6.93805 12.3343 6.93805C12.3763 6.93805 12.4184 6.92199 12.4504 6.88991C12.5146 6.82574 12.5146 6.72169 12.4504 6.65757L12.238 6.44511L12.4504 6.23265C12.5146 6.16852 12.5146 6.06447 12.4505 6.0003Z" fill="#FFCD05"/>
<path d="M20.3534 7.03439L19.5779 6.2589L21.072 4.76474C21.2068 4.63 21.0426 4.41236 20.8761 4.50491L17.9093 6.15312C17.8138 6.20615 17.7957 6.33576 17.8729 6.41295L18.6483 7.18843L17.1542 8.6826C17.0194 8.81733 17.1836 9.03497 17.3502 8.94242L20.317 7.29421C20.4124 7.24118 20.4306 7.11157 20.3534 7.03439Z" fill="#F58721"/>
<path d="M4.55172 5.48325L3.77623 6.25874L2.28207 4.76454C2.14733 4.6298 1.9297 4.79395 2.02225 4.96052L3.67045 7.92733C3.72349 8.02275 3.85309 8.04091 3.93028 7.96372L4.70576 7.18823L6.19993 8.6824C6.33466 8.81714 6.5523 8.65298 6.45975 8.48641L4.81154 5.51965C4.75855 5.42422 4.62891 5.40607 4.55172 5.48325Z" fill="#F58721"/>
<path d="M15.9498 3.97196H15.2925C15.111 3.97196 14.9639 3.82482 14.9639 3.64333C14.9639 3.46184 15.111 3.3147 15.2925 3.3147H15.9498C16.1312 3.3147 16.2784 3.46184 16.2784 3.64333C16.2784 3.82482 16.1312 3.97196 15.9498 3.97196Z" fill="#F58721"/>
<path d="M17.9214 3.97196H17.2642C17.0827 3.97196 16.9355 3.82482 16.9355 3.64333C16.9355 3.46184 17.0827 3.3147 17.2642 3.3147H17.9214C18.1029 3.3147 18.2501 3.46184 18.2501 3.64333C18.2501 3.82482 18.1029 3.97196 17.9214 3.97196Z" fill="#F58721"/>
<path d="M16.607 5.28645C16.4255 5.28645 16.2783 5.1393 16.2783 4.95782V4.30056C16.2783 4.11907 16.4255 3.97192 16.607 3.97192C16.7884 3.97192 16.9356 4.11907 16.9356 4.30056V4.95782C16.9356 5.1393 16.7884 5.28645 16.607 5.28645Z" fill="#F58721"/>
<path d="M16.607 3.31477C16.4255 3.31477 16.2783 3.16762 16.2783 2.98614V2.32888C16.2783 2.14739 16.4255 2.00024 16.607 2.00024C16.7884 2.00024 16.9356 2.14739 16.9356 2.32888V2.98614C16.9356 3.16762 16.7884 3.31477 16.607 3.31477Z" fill="#F58721"/>
<path d="M6.08941 3.97196H5.43215C5.25066 3.97196 5.10352 3.82482 5.10352 3.64333C5.10352 3.46184 5.25066 3.3147 5.43215 3.3147H6.08941C6.27089 3.3147 6.41804 3.46184 6.41804 3.64333C6.41804 3.82482 6.27089 3.97196 6.08941 3.97196Z" fill="#F58721"/>
<path d="M8.06109 3.97196H7.40383C7.22234 3.97196 7.0752 3.82482 7.0752 3.64333C7.0752 3.46184 7.22234 3.3147 7.40383 3.3147H8.06109C8.24257 3.3147 8.38972 3.46184 8.38972 3.64333C8.38972 3.82482 8.24257 3.97196 8.06109 3.97196Z" fill="#F58721"/>
<path d="M6.7466 5.28645C6.56511 5.28645 6.41797 5.1393 6.41797 4.95782V4.30056C6.41797 4.11907 6.56511 3.97192 6.7466 3.97192C6.92809 3.97192 7.07523 4.11907 7.07523 4.30056V4.95782C7.07523 5.1393 6.92809 5.28645 6.7466 5.28645Z" fill="#F58721"/>
<path d="M6.7466 3.31452C6.56511 3.31452 6.41797 3.16738 6.41797 2.98589V2.32863C6.41797 2.14714 6.56511 2 6.7466 2C6.92809 2 7.07523 2.14714 7.07523 2.32863V2.98589C7.07523 3.16738 6.92809 3.31452 6.7466 3.31452Z" fill="#F58721"/>
</svg>
