<svg viewBox="0 0 24 24" fill="none" xmlns="http://www.w3.org/2000/svg">
<g clip-path="url(#clip0_487_1036)">
<path d="M12 24C18.6274 24 24 18.6274 24 12C24 5.37258 18.6274 0 12 0C5.37258 0 0 5.37258 0 12C0 18.6274 5.37258 24 12 24Z" fill="#012169"/>
<path d="M21.2463 4.35303L11.9999 9.90103L2.75354 4.35303C1.9845 5.28298 1.36039 6.32379 0.902344 7.44023L8.50234 12.0002L0.902344 16.5602C1.36004 17.6769 1.98389 18.718 2.75274 19.6482L11.9999 14.0994L21.2471 19.6474C22.016 18.7172 22.6398 17.6761 23.0975 16.5594L15.4975 11.9994L23.0975 7.43943C22.6394 6.32327 22.0153 5.28273 21.2463 4.35303Z" fill="white"/>
<path d="M2.39061 19.1657L13.1658 12.7001L22.2794 18.1681C22.4861 17.8244 22.6754 17.4707 22.8466 17.1081L13.1666 11.3001L22.2794 5.83287C22.0719 5.48834 21.8487 5.15554 21.6098 4.83447L10.8338 11.3001L1.72021 5.83287C1.51488 6.17527 1.32608 6.52834 1.15381 6.89207L10.8338 12.7001L1.72021 18.1681C1.92687 18.5116 2.15062 18.8445 2.39061 19.1657Z" fill="#C8102E"/>
<path d="M15 0.393604C13.0344 -0.131201 10.9656 -0.131201 9.00001 0.393604V9.00001H0.393604C-0.131201 10.9656 -0.131201 13.0344 0.393604 15H9.00001V23.6064C10.9656 24.1312 13.0344 24.1312 15 23.6064V15H23.6064C24.1312 13.0344 24.1312 10.9656 23.6064 9.00001H15V0.393604Z" fill="white"/>
<path d="M13.8 0.1496C13.2046 0.0546811 12.6029 0.00467342 12 0C11.3971 0.00467342 10.7954 0.0546811 10.2 0.1496V10.2H0.1496C0.0546811 10.7954 0.00467342 11.3971 0 12C0.00467342 12.6029 0.0546811 13.2046 0.1496 13.8H10.2V23.8504C10.7954 23.9453 11.3971 23.9953 12 24C12.6029 23.9953 13.2046 23.9453 13.8 23.8504V13.8H23.8504C23.9453 13.2046 23.9953 12.6029 24 12C23.9953 11.3971 23.9453 10.7954 23.8504 10.2H13.8V0.1496Z" fill="#C8102E"/>
<mask id="mask0_487_1036" style="mask-type:alpha" maskUnits="userSpaceOnUse" x="-1" y="-1" width="22" height="22">
<path d="M3.48542 20.4558L20.456 3.48528C15.7697 -1.20101 8.17171 -1.20101 3.48542 3.48528C-1.20087 8.17157 -1.20087 15.7696 3.48542 20.4558Z" fill="#D9D9D9"/>
</mask>
<g mask="url(#mask0_487_1036)">
<path d="M18.372 1.81664H5.57137C5.7998 1.67227 6.03324 1.53555 6.27168 1.40648C7.96045 0.492544 9.84497 -1.33383e-05 11.765 -0.0292969H12.1784C12.4081 -0.0260156 12.6359 -0.0152344 12.8623 0.00117187C14.8203 0.143582 16.7129 0.767189 18.372 1.81664Z" fill="#C8102E"/>
<path d="M20.6323 3.66258H3.31105C3.3223 3.65039 3.33402 3.63867 3.34574 3.62648C3.56449 3.40148 3.79027 3.18539 4.02309 2.9782C4.24715 2.78039 4.47855 2.59055 4.7173 2.40867C4.99293 2.19961 5.2798 2.00133 5.57137 1.81664H18.372C19.1977 2.33771 19.9568 2.9576 20.6323 3.66258Z" fill="white"/>
<path d="M22.0859 5.50805H1.85746C2.02855 5.24133 2.20996 4.9807 2.40121 4.72898C2.68352 4.35615 2.98732 4.00007 3.31105 3.66258H20.6323C21.1756 4.22908 21.6624 4.84715 22.0859 5.50805Z" fill="#C8102E"/>
<path d="M23.052 7.35398H0.891367C0.949492 7.21336 1.01043 7.07555 1.07465 6.93773C1.27861 6.49649 1.50919 6.06804 1.76512 5.65476C1.79559 5.60789 1.82652 5.55727 1.85887 5.50805H22.0859C22.461 6.09411 22.7842 6.71176 23.052 7.35398Z" fill="white"/>
<path d="M23.6501 9.19945H0.293242C0.360117 8.91351 0.438242 8.63226 0.527617 8.3557C0.634805 8.01445 0.75668 7.6807 0.893242 7.35445L23.052 7.35398C23.3014 7.95163 23.5014 8.56916 23.6501 9.19945Z" fill="#C8102E"/>
<path d="M23.9365 11.0454H0.00683594C0.0538133 10.4235 0.149577 9.80631 0.293242 9.19945H23.6501C23.7938 9.80631 23.8895 10.4235 23.9365 11.0454Z" fill="white"/>
<path d="M23.9717 11.9684C23.9717 12.2787 23.96 12.5863 23.9365 12.8913H0.00683594C-0.0166016 12.5866 -0.0283203 12.279 -0.0283203 11.9684V11.3707C-0.0282736 11.3863 -0.0238912 11.4015 -0.0156641 11.4148C-0.0156641 11.3824 -0.0128516 11.3501 -0.0109766 11.3182C-0.00628906 11.2268 -0.000195314 11.1363 0.00683594 11.0454H23.9365C23.96 11.3501 23.9717 11.6577 23.9717 11.9684Z" fill="#C8102E"/>
<path d="M23.9365 12.8913C23.8896 13.5132 23.7938 14.1304 23.6501 14.7373H0.293242C0.149537 14.1304 0.0537729 13.5132 0.00683594 12.8913H23.9365Z" fill="white"/>
<path d="M23.6501 14.7373C23.5017 15.3678 23.3017 15.985 23.052 16.5827H0.891367C0.641682 15.985 0.441632 15.3678 0.293242 14.7373H23.6501Z" fill="#C8102E"/>
<path d="M23.052 16.5827C22.7845 17.2251 22.4612 17.8428 22.0859 18.4287H1.85746C1.48211 17.8428 1.15884 17.2251 0.891367 16.5827H23.052Z" fill="white"/>
<path d="M22.0859 18.4287C21.6627 19.0898 21.176 19.708 20.6328 20.2746H3.31105C2.7678 19.708 2.28065 19.0898 1.85746 18.4287H22.0859Z" fill="#C8102E"/>
<path d="M20.6328 20.2746C19.9569 20.9792 19.1974 21.599 18.372 22.1205H5.57137C4.74595 21.599 3.98695 20.9792 3.31105 20.2746H20.6328Z" fill="white"/>
<path d="M18.372 22.1205C16.5249 23.2899 14.3919 23.9292 12.2061 23.9684H11.7373C9.55107 23.9302 7.41739 23.2918 5.56949 22.1229L18.372 22.1205Z" fill="#C8102E"/>
<path d="M12.8623 0.00117187V12.8918L0.00683594 12.8913C-0.0166016 12.5866 -0.0283203 12.279 -0.0283203 11.9684V11.3707C-0.0282736 11.3863 -0.0238912 11.4015 -0.0156641 11.4148C-0.0156641 11.3824 -0.0128516 11.3501 -0.0109766 11.3182C-0.00628906 11.2268 -0.000195314 11.1363 0.00683594 11.0454C0.0538133 10.4235 0.149577 9.80631 0.293242 9.19945C0.360117 8.91351 0.438242 8.63226 0.527617 8.3557C0.634805 8.01445 0.75668 7.6807 0.893242 7.35445C0.951367 7.21383 1.0123 7.07602 1.07652 6.9382C1.28048 6.49696 1.51106 6.06851 1.76699 5.65523C1.79746 5.60836 1.8284 5.55773 1.86074 5.50852C2.03184 5.2418 2.21324 4.98117 2.40449 4.72945C2.68573 4.35654 2.98843 4.00032 3.31105 3.66258C3.3223 3.65039 3.33402 3.63867 3.34574 3.62648C3.56449 3.40148 3.79027 3.18539 4.02309 2.9782C4.24715 2.78039 4.47855 2.59055 4.7173 2.40867C4.99293 2.19961 5.2798 2.00133 5.57137 1.81664C5.7998 1.67227 6.03324 1.53555 6.27168 1.40648C7.96045 0.492544 9.84497 -1.33383e-05 11.765 -0.0292969H12.1784C12.4081 -0.0260156 12.6359 -0.0152344 12.8623 0.00117187Z" fill="#012169"/>
<path d="M11.4748 0.737109L11.6389 1.24195C11.6444 1.2591 11.6552 1.27405 11.6698 1.28466C11.6844 1.29527 11.7019 1.301 11.72 1.30102H12.2529C12.2706 1.30171 12.2877 1.3079 12.3017 1.31873C12.3158 1.32956 12.3261 1.34449 12.3312 1.36145C12.3364 1.37841 12.3361 1.39655 12.3305 1.41336C12.3249 1.43017 12.3141 1.4448 12.2998 1.45523L11.87 1.76742C11.8556 1.77782 11.8449 1.79247 11.8393 1.8093C11.8338 1.82613 11.8337 1.84428 11.839 1.86117L12.0031 2.36648C12.0081 2.38351 12.0077 2.40168 12.002 2.41846C11.9962 2.43525 11.9853 2.44982 11.9709 2.46014C11.9564 2.47046 11.9391 2.47601 11.9214 2.47603C11.9036 2.47605 11.8863 2.47052 11.8718 2.46023L11.4425 2.14805C11.4279 2.13752 11.4103 2.13186 11.3923 2.13186C11.3743 2.13186 11.3568 2.13752 11.3421 2.14805L10.9123 2.46023C10.8978 2.47052 10.8805 2.47605 10.8628 2.47603C10.845 2.47601 10.8277 2.47046 10.8133 2.46014C10.7988 2.44982 10.788 2.43525 10.7822 2.41846C10.7764 2.40168 10.776 2.38351 10.7811 2.36648L10.9456 1.86117C10.9507 1.84426 10.9505 1.82618 10.945 1.8094C10.9394 1.79262 10.9288 1.77796 10.9146 1.76742L10.4848 1.45523C10.4703 1.44463 10.4595 1.4297 10.4539 1.41259C10.4484 1.39547 10.4484 1.37705 10.454 1.35994C10.4595 1.34284 10.4704 1.32793 10.4849 1.31734C10.4995 1.30676 10.517 1.30105 10.535 1.30102H11.0661C11.0841 1.30093 11.1016 1.29518 11.1161 1.28458C11.1307 1.27397 11.1415 1.25906 11.1471 1.24195L11.3112 0.737109C11.3164 0.719471 11.3272 0.703994 11.342 0.692988C11.3567 0.681982 11.3746 0.676035 11.393 0.676035C11.4114 0.676035 11.4293 0.681982 11.444 0.692988C11.4588 0.703994 11.4696 0.719471 11.4748 0.737109Z" fill="white"/>
<path d="M5.77574 1.81664C5.77146 1.83197 5.77146 1.84818 5.77574 1.86352L5.94027 2.36789C5.94532 2.38491 5.94492 2.40308 5.93915 2.41987C5.93337 2.43666 5.92251 2.45123 5.90806 2.46154C5.89362 2.47186 5.87631 2.47742 5.85856 2.47743C5.8408 2.47745 5.82349 2.47193 5.80902 2.46164L5.37918 2.14992C5.36465 2.13943 5.34718 2.13379 5.32926 2.13379C5.31134 2.13379 5.29387 2.13943 5.27934 2.14992L4.84949 2.46164C4.83784 2.47025 4.82418 2.47574 4.80981 2.47757C4.79544 2.47941 4.78084 2.47754 4.7674 2.47213C4.75396 2.46673 4.74213 2.45797 4.73303 2.4467C4.72393 2.43543 4.71787 2.42201 4.71543 2.40773C4.99105 2.19867 5.27793 2.00039 5.56949 1.8157C5.79793 1.67133 6.03137 1.53461 6.2698 1.40555C6.26443 1.42453 6.25268 1.44109 6.23652 1.45242L5.80668 1.76461C5.79045 1.77767 5.77947 1.79614 5.77574 1.81664Z" fill="white"/>
<path d="M11.4748 4.66617L11.6389 5.17148C11.6444 5.18858 11.6553 5.20347 11.6699 5.21401C11.6844 5.22454 11.702 5.23017 11.72 5.23008H12.2529C12.2709 5.23011 12.2884 5.23582 12.303 5.24641C12.3175 5.25699 12.3284 5.2719 12.3339 5.289C12.3395 5.30611 12.3395 5.32454 12.334 5.34165C12.3284 5.35876 12.3176 5.37369 12.3031 5.3843L11.8732 5.69648C11.8589 5.70688 11.8482 5.72153 11.8426 5.73836C11.8371 5.75519 11.837 5.77334 11.8423 5.79023L12.0045 6.29648C12.0095 6.31351 12.0091 6.33168 12.0034 6.34846C11.9976 6.36525 11.9867 6.37982 11.9723 6.39014C11.9578 6.40046 11.9405 6.40601 11.9228 6.40603C11.905 6.40605 11.8877 6.40052 11.8732 6.39023L11.4439 6.07805C11.4293 6.06752 11.4117 6.06185 11.3937 6.06185C11.3757 6.06185 11.3582 6.06752 11.3436 6.07805L10.9137 6.39023C10.8992 6.40052 10.8819 6.40605 10.8642 6.40603C10.8464 6.40601 10.8291 6.40046 10.8147 6.39014C10.8002 6.37982 10.7894 6.36525 10.7836 6.34846C10.7778 6.33168 10.7774 6.31351 10.7825 6.29648L10.947 5.79117C10.9521 5.77426 10.9519 5.75618 10.9464 5.7394C10.9408 5.72262 10.9302 5.70796 10.9161 5.69742L10.4862 5.38523C10.4717 5.37463 10.4609 5.3597 10.4553 5.34259C10.4498 5.32547 10.4498 5.30705 10.4554 5.28994C10.4609 5.27284 10.4718 5.25793 10.4863 5.24734C10.5009 5.23676 10.5184 5.23105 10.5364 5.23102H11.0675C11.0854 5.23103 11.1029 5.22537 11.1175 5.21485C11.1321 5.20433 11.1429 5.18948 11.1486 5.17242L11.3126 4.66711C11.3181 4.64997 11.3289 4.63501 11.3434 4.62436C11.3579 4.61371 11.3754 4.60792 11.3934 4.60782C11.4114 4.60772 11.4289 4.6133 11.4436 4.62378C11.4582 4.63426 11.4691 4.6491 11.4748 4.66617Z" fill="white"/>
<path d="M8.4434 4.66617L8.60746 5.17148C8.61302 5.18858 8.62388 5.20347 8.63845 5.21401C8.65303 5.22454 8.67057 5.23016 8.68855 5.23008H9.21965C9.23764 5.23011 9.25515 5.23582 9.2697 5.24641C9.28424 5.25699 9.29507 5.2719 9.30063 5.289C9.3062 5.30611 9.30621 5.32454 9.30067 5.34165C9.29514 5.35876 9.28433 5.37369 9.2698 5.3843L8.83996 5.69648C8.82567 5.70693 8.815 5.72158 8.80945 5.7384C8.8039 5.75521 8.80375 5.77333 8.80902 5.79023L8.97168 6.29648C8.97692 6.31348 8.97668 6.3317 8.971 6.34856C8.96532 6.36542 8.95449 6.38006 8.94003 6.39043C8.92557 6.40079 8.90822 6.40635 8.89043 6.40631C8.87264 6.40628 8.85532 6.40065 8.8409 6.39023L8.41105 6.07805C8.39645 6.06752 8.3789 6.06185 8.3609 6.06185C8.34289 6.06185 8.32535 6.06752 8.31074 6.07805L7.8823 6.39023C7.86789 6.40065 7.85056 6.40628 7.83277 6.40631C7.81498 6.40635 7.79763 6.40079 7.78317 6.39043C7.76871 6.38006 7.75788 6.36542 7.7522 6.34856C7.74652 6.3317 7.74628 6.31348 7.75152 6.29648L7.91559 5.79117C7.92085 5.77427 7.9207 5.75614 7.91516 5.73933C7.90961 5.72252 7.89894 5.70787 7.88465 5.69742L7.4548 5.38523C7.44028 5.37463 7.42947 5.3597 7.42393 5.34259C7.4184 5.32547 7.41841 5.30705 7.42398 5.28994C7.42954 5.27284 7.44037 5.25793 7.45491 5.24734C7.46946 5.23676 7.48697 5.23105 7.50496 5.23101H8.03418C8.05216 5.2311 8.06971 5.22547 8.08428 5.21494C8.09886 5.20441 8.10971 5.18952 8.11527 5.17242L8.27934 4.66711C8.28433 4.64925 8.295 4.63351 8.30973 4.62226C8.32447 4.61101 8.34247 4.60486 8.36101 4.60476C8.37955 4.60465 8.39762 4.61059 8.41249 4.62167C8.42735 4.63275 8.4382 4.64837 8.4434 4.66617Z" fill="white"/>
<path d="M3.20605 5.38477L3.0359 5.50805L2.77621 5.69555C2.76197 5.70604 2.75135 5.7207 2.7458 5.73749C2.74026 5.75429 2.74008 5.77239 2.74527 5.7893L2.91074 6.29648C2.91549 6.31346 2.91489 6.33148 2.90903 6.3481C2.90316 6.36472 2.89233 6.37913 2.87799 6.38937C2.86364 6.39962 2.8465 6.4052 2.82887 6.40535C2.81125 6.4055 2.79401 6.40023 2.77949 6.39023L2.35012 6.07758C2.33551 6.06705 2.31796 6.06139 2.29996 6.06139C2.28196 6.06139 2.26441 6.06705 2.2498 6.07758L1.81996 6.39023C1.80544 6.40023 1.7882 6.4055 1.77058 6.40535C1.75296 6.4052 1.73581 6.39962 1.72147 6.38937C1.70713 6.37913 1.69629 6.36472 1.69043 6.3481C1.68457 6.33148 1.68397 6.31346 1.68871 6.29648L1.85324 5.79164C1.85823 5.77472 1.85794 5.75668 1.85242 5.73993C1.84689 5.72318 1.83638 5.70852 1.8223 5.69789L1.76512 5.65617C1.79559 5.6093 1.82652 5.55867 1.85887 5.50945C2.02996 5.24273 2.21137 4.98211 2.40262 4.73039L2.54512 5.17148C2.55066 5.18863 2.5615 5.20358 2.57607 5.21419C2.59063 5.22481 2.60819 5.23053 2.62621 5.23055H3.15918C3.17675 5.23151 3.1936 5.23784 3.20745 5.2487C3.22129 5.25956 3.23146 5.27442 3.23658 5.29125C3.2417 5.30809 3.24151 5.32609 3.23605 5.34282C3.23059 5.35955 3.22012 5.37419 3.20605 5.38477Z" fill="white"/>
<path d="M11.4748 8.66883L11.6389 9.17414C11.6445 9.1912 11.6554 9.20605 11.6699 9.21657C11.6845 9.22709 11.702 9.23275 11.72 9.23273H12.2529C12.2709 9.23276 12.2884 9.23848 12.303 9.24906C12.3175 9.25965 12.3284 9.27456 12.3339 9.29166C12.3395 9.30877 12.3395 9.32719 12.334 9.34431C12.3284 9.36142 12.3176 9.37635 12.3031 9.38695L11.8732 9.69914C11.8589 9.70954 11.8482 9.72419 11.8426 9.74102C11.8371 9.75785 11.837 9.77599 11.8423 9.79289L12.0064 10.2982C12.0114 10.3152 12.011 10.3334 12.0052 10.3502C11.9995 10.367 11.9886 10.3815 11.9742 10.3919C11.9597 10.4022 11.9424 10.4077 11.9247 10.4077C11.9069 10.4078 11.8896 10.4022 11.8751 10.392L11.4457 10.0798C11.4311 10.0692 11.4136 10.0636 11.3956 10.0636C11.3776 10.0636 11.36 10.0692 11.3454 10.0798L10.9156 10.392C10.9011 10.4022 10.8838 10.4078 10.8661 10.4077C10.8483 10.4077 10.831 10.4022 10.8165 10.3919C10.8021 10.3815 10.7912 10.367 10.7855 10.3502C10.7797 10.3334 10.7793 10.3152 10.7843 10.2982L10.9489 9.79289C10.954 9.77598 10.9538 9.7579 10.9482 9.74112C10.9427 9.72434 10.9321 9.70968 10.9179 9.69914L10.4881 9.38695C10.4736 9.37635 10.4628 9.36142 10.4572 9.34431C10.4517 9.32719 10.4517 9.30877 10.4573 9.29166C10.4628 9.27456 10.4736 9.25965 10.4882 9.24906C10.5027 9.23848 10.5203 9.23276 10.5382 9.23273H11.0693C11.0873 9.23268 11.1048 9.22699 11.1193 9.21648C11.1339 9.20597 11.1447 9.19116 11.1504 9.17414L11.3145 8.66883C11.3205 8.65238 11.3314 8.63818 11.3457 8.62814C11.3601 8.61811 11.3771 8.61272 11.3946 8.61272C11.4122 8.61272 11.4292 8.61811 11.4436 8.62814C11.4579 8.63818 11.4688 8.65238 11.4748 8.66883Z" fill="white"/>
<path d="M8.4434 8.66883L8.60746 9.17414C8.61309 9.1912 8.62396 9.20605 8.63852 9.21657C8.65308 9.22709 8.67059 9.23275 8.68855 9.23273H9.21965C9.23764 9.23276 9.25515 9.23848 9.2697 9.24906C9.28424 9.25965 9.29507 9.27456 9.30063 9.29166C9.3062 9.30877 9.30621 9.32719 9.30067 9.34431C9.29514 9.36142 9.28433 9.37635 9.2698 9.38695L8.83996 9.69914C8.82567 9.70959 8.815 9.72424 8.80945 9.74105C8.8039 9.75786 8.80375 9.77599 8.80902 9.79289L8.97168 10.2996C8.97692 10.3166 8.97668 10.3348 8.971 10.3517C8.96532 10.3685 8.95449 10.3832 8.94003 10.3936C8.92557 10.4039 8.90822 10.4095 8.89043 10.4094C8.87264 10.4094 8.85532 10.4038 8.8409 10.3934L8.41105 10.0812C8.39645 10.0706 8.3789 10.065 8.3609 10.065C8.34289 10.065 8.32535 10.0706 8.31074 10.0812L7.8809 10.3934C7.86648 10.4038 7.84915 10.4094 7.83136 10.4094C7.81357 10.4095 7.79622 10.4039 7.78177 10.3936C7.76731 10.3832 7.75647 10.3685 7.75079 10.3517C7.74511 10.3348 7.74488 10.3166 7.75012 10.2996L7.91418 9.7943C7.91945 9.7774 7.9193 9.75927 7.91375 9.74246C7.9082 9.72565 7.89753 9.71099 7.88324 9.70055L7.4534 9.38836C7.43887 9.37775 7.42807 9.36283 7.42253 9.34571C7.41699 9.3286 7.41701 9.31017 7.42257 9.29307C7.42813 9.27596 7.43896 9.26105 7.4535 9.25047C7.46805 9.23989 7.48557 9.23417 7.50355 9.23414H8.03418C8.05214 9.23416 8.06966 9.2285 8.08422 9.21798C8.09878 9.20746 8.10965 9.19261 8.11527 9.17555L8.27934 8.67023C8.28427 8.65236 8.2949 8.63658 8.30961 8.62529C8.32431 8.614 8.3423 8.6078 8.36084 8.60764C8.37938 8.60748 8.39747 8.61337 8.41236 8.62441C8.42726 8.63545 8.43815 8.65104 8.4434 8.66883Z" fill="white"/>
<path d="M5.41199 8.66883L5.57605 9.17414C5.58174 9.19116 5.59263 9.20597 5.60718 9.21648C5.62172 9.22699 5.6392 9.23268 5.65715 9.23273H6.18824C6.20623 9.23276 6.22375 9.23848 6.23829 9.24906C6.25284 9.25965 6.26366 9.27456 6.26923 9.29166C6.27479 9.30877 6.2748 9.32719 6.26927 9.34431C6.26373 9.36142 6.25293 9.37635 6.2384 9.38695L5.80855 9.69914C5.79437 9.70968 5.78378 9.72434 5.77825 9.74112C5.77271 9.7579 5.77249 9.77598 5.77762 9.79289L5.94215 10.2982C5.94719 10.3152 5.9468 10.3334 5.94102 10.3502C5.93525 10.367 5.92438 10.3815 5.90994 10.3919C5.89549 10.4022 5.87819 10.4077 5.86043 10.4077C5.84268 10.4078 5.82536 10.4022 5.8109 10.392L5.38105 10.0798C5.36652 10.0693 5.34905 10.0636 5.33113 10.0636C5.31321 10.0636 5.29574 10.0693 5.28121 10.0798L4.85137 10.392C4.8369 10.4022 4.81959 10.4078 4.80183 10.4077C4.78408 10.4077 4.76677 10.4022 4.75233 10.3919C4.73788 10.3815 4.72702 10.367 4.72124 10.3502C4.71547 10.3334 4.71507 10.3152 4.72012 10.2982L4.88418 9.79289C4.88952 9.77599 4.88941 9.75785 4.88385 9.74102C4.8783 9.72419 4.86759 9.70954 4.85324 9.69914L4.4248 9.38695C4.41048 9.37652 4.39975 9.36188 4.39412 9.34508C4.38849 9.32827 4.38824 9.31013 4.39339 9.29317C4.39854 9.27621 4.40885 9.26128 4.42288 9.25045C4.43691 9.23962 4.45397 9.23343 4.47168 9.23273H5.00277C5.02074 9.23275 5.03825 9.22709 5.05281 9.21657C5.06737 9.20605 5.07824 9.1912 5.08387 9.17414L5.24793 8.66883C5.25302 8.651 5.26378 8.63532 5.27858 8.62415C5.29339 8.61299 5.31142 8.60695 5.32996 8.60695C5.3485 8.60695 5.36654 8.61299 5.38134 8.62415C5.39614 8.63532 5.4069 8.651 5.41199 8.66883Z" fill="white"/>
<path d="M2.38105 8.66883L2.54512 9.17414C2.55074 9.1912 2.56161 9.20605 2.57617 9.21657C2.59073 9.22709 2.60825 9.23275 2.62621 9.23273H3.15918C3.17689 9.23343 3.19395 9.23962 3.20798 9.25045C3.22201 9.26128 3.23231 9.27621 3.23747 9.29317C3.24262 9.31013 3.24237 9.32827 3.23674 9.34508C3.23111 9.36189 3.22038 9.37652 3.20605 9.38695L2.77621 9.69914C2.76186 9.70954 2.75115 9.72419 2.7456 9.74102C2.74005 9.75785 2.73993 9.77599 2.74527 9.79289L2.90934 10.2982C2.91438 10.3152 2.91398 10.3334 2.90821 10.3502C2.90244 10.367 2.89157 10.3815 2.87712 10.3919C2.86268 10.4022 2.84537 10.4077 2.82762 10.4077C2.80987 10.4078 2.79255 10.4022 2.77809 10.392L2.34871 10.0798C2.33411 10.0692 2.31656 10.0636 2.29855 10.0636C2.28055 10.0636 2.263 10.0692 2.2484 10.0798L1.81855 10.392C1.80409 10.4022 1.78677 10.4078 1.76902 10.4077C1.75127 10.4077 1.73396 10.4022 1.71952 10.3919C1.70507 10.3815 1.6942 10.367 1.68843 10.3502C1.68266 10.3334 1.68226 10.3152 1.6873 10.2982L1.85184 9.79289C1.85696 9.77598 1.85674 9.7579 1.85121 9.74112C1.84567 9.72434 1.83508 9.70968 1.8209 9.69914L1.39105 9.38695C1.37653 9.37635 1.36572 9.36142 1.36018 9.34431C1.35465 9.32719 1.35466 9.30877 1.36023 9.29166C1.36579 9.27456 1.37662 9.25965 1.39116 9.24906C1.40571 9.23848 1.42322 9.23276 1.44121 9.23273H1.97371C1.99166 9.23268 2.00914 9.22699 2.02368 9.21648C2.03823 9.20597 2.04912 9.19116 2.0548 9.17414L2.21887 8.66883C2.22445 8.65173 2.23531 8.63683 2.24987 8.62626C2.26444 8.6157 2.28197 8.61001 2.29996 8.61001C2.31795 8.61001 2.33548 8.6157 2.35005 8.62626C2.36461 8.63683 2.37547 8.65173 2.38105 8.66883Z" fill="white"/>
<path d="M9.95887 2.58914L10.1229 3.09445C10.1286 3.11151 10.1394 3.12636 10.154 3.13688C10.1685 3.14741 10.1861 3.15306 10.204 3.15305H10.7351C10.7531 3.15308 10.7706 3.15879 10.7852 3.16938C10.7997 3.17996 10.8105 3.19487 10.8161 3.21197C10.8217 3.22908 10.8217 3.24751 10.8161 3.26462C10.8106 3.28173 10.7998 3.29666 10.7853 3.30727L10.3554 3.61945C10.3412 3.62999 10.3307 3.64465 10.3251 3.66143C10.3196 3.67821 10.3194 3.69629 10.3245 3.7132L10.489 4.21852C10.4941 4.23554 10.4937 4.25371 10.4879 4.27049C10.4821 4.28728 10.4713 4.30185 10.4568 4.31217C10.4424 4.32249 10.4251 4.32804 10.4073 4.32806C10.3896 4.32808 10.3722 4.32256 10.3578 4.31227L9.92793 4.00008C9.9134 3.98959 9.89593 3.98395 9.87801 3.98395C9.86009 3.98395 9.84262 3.98959 9.82809 4.00008L9.39824 4.31227C9.38378 4.32256 9.36646 4.32808 9.34871 4.32806C9.33095 4.32804 9.31365 4.32249 9.2992 4.31217C9.28476 4.30185 9.27389 4.28728 9.26812 4.27049C9.26234 4.25371 9.26195 4.23554 9.26699 4.21852L9.43105 3.7132C9.43639 3.69631 9.43628 3.67816 9.43073 3.66133C9.42517 3.6445 9.41446 3.62985 9.40012 3.61945L8.97168 3.30727C8.95735 3.29683 8.94662 3.2822 8.94099 3.26539C8.93536 3.24858 8.93511 3.23044 8.94027 3.21348C8.94542 3.19653 8.95573 3.18159 8.96976 3.17076C8.98379 3.15993 9.00084 3.15374 9.01855 3.15305H9.54965C9.56763 3.15313 9.58517 3.14751 9.59975 3.13697C9.61433 3.12644 9.62518 3.11155 9.63074 3.09445L9.7948 2.58914C9.7999 2.57131 9.81066 2.55563 9.82546 2.54447C9.84026 2.5333 9.8583 2.52726 9.87684 2.52726C9.89538 2.52726 9.91341 2.5333 9.92821 2.54447C9.94301 2.55563 9.95377 2.57131 9.95887 2.58914Z" fill="white"/>
<path d="M4.26215 3.66258C4.25675 3.67966 4.25675 3.69799 4.26215 3.71508L4.4248 4.21992C4.42973 4.23687 4.42928 4.25494 4.42351 4.27162C4.41774 4.28831 4.40694 4.30279 4.39259 4.31307C4.37824 4.32336 4.36105 4.32894 4.3434 4.32905C4.32575 4.32915 4.3085 4.32378 4.29402 4.31367L3.86418 4.00101C3.84957 3.99049 3.83203 3.98482 3.81402 3.98482C3.79602 3.98482 3.77847 3.99049 3.76387 4.00101L3.33402 4.31367C3.31955 4.32378 3.3023 4.32915 3.28465 4.32905C3.26699 4.32894 3.24981 4.32336 3.23546 4.31307C3.22111 4.30279 3.21031 4.28831 3.20454 4.27162C3.19877 4.25494 3.19831 4.23687 3.20324 4.21992L3.3673 3.71508C3.3727 3.69799 3.3727 3.67966 3.3673 3.66258C3.36418 3.64822 3.35702 3.63505 3.34668 3.62461C3.56543 3.39961 3.79121 3.18352 4.02402 2.97633L4.06152 3.09211C4.06679 3.10976 4.07762 3.12523 4.09241 3.13622C4.10719 3.1472 4.12514 3.15311 4.14355 3.15305H4.67465C4.69261 3.15324 4.71006 3.15907 4.72454 3.16971C4.73901 3.18036 4.74978 3.19528 4.75532 3.21236C4.76086 3.22945 4.7609 3.24785 4.75542 3.26496C4.74995 3.28207 4.73924 3.29703 4.7248 3.30773L4.29496 3.61945C4.27958 3.62983 4.26805 3.64499 4.26215 3.66258Z" fill="white"/>
<path d="M1.85652 7.35398C1.85533 7.36568 1.85162 7.37698 1.84563 7.3871C1.83964 7.39722 1.83152 7.40591 1.82184 7.41258L1.39199 7.72523C1.37781 7.73577 1.36722 7.75043 1.36169 7.76721C1.35615 7.78399 1.35593 7.80207 1.36105 7.81898L1.52512 8.3243C1.53036 8.3413 1.53012 8.35951 1.52444 8.37637C1.51876 8.39323 1.50793 8.40788 1.49347 8.41824C1.47901 8.4286 1.46166 8.43416 1.44387 8.43413C1.42608 8.43409 1.40875 8.42847 1.39434 8.41805L0.964492 8.10633C0.950064 8.09538 0.932449 8.08945 0.914336 8.08945C0.896223 8.08945 0.878608 8.09538 0.86418 8.10633L0.525742 8.35242C0.63293 8.01117 0.754805 7.67742 0.891367 7.35117C0.949492 7.21055 1.01043 7.07273 1.07465 6.93492L1.15949 7.19695C1.16502 7.21415 1.17583 7.22916 1.1904 7.23985C1.20496 7.25054 1.22252 7.25636 1.24059 7.25648H1.77168C1.78395 7.25643 1.79608 7.25901 1.80726 7.26407C1.81844 7.26913 1.82839 7.27654 1.83644 7.28579C1.8445 7.29505 1.85046 7.30593 1.85392 7.3177C1.85739 7.32947 1.85828 7.34184 1.85652 7.35398Z" fill="white"/>
<path d="M9.95887 6.69492L10.1229 7.20023C10.1286 7.21726 10.1395 7.23207 10.154 7.24258C10.1686 7.25309 10.1861 7.25877 10.204 7.25883H10.7351C10.7531 7.25886 10.7706 7.26457 10.7852 7.27516C10.7997 7.28574 10.8105 7.30065 10.8161 7.31775C10.8217 7.33486 10.8217 7.35329 10.8161 7.3704C10.8106 7.38751 10.7998 7.40244 10.7853 7.41305L10.3554 7.72523C10.3412 7.73577 10.3307 7.75043 10.3251 7.76721C10.3196 7.78399 10.3194 7.80207 10.3245 7.81898L10.489 8.3243C10.4941 8.34132 10.4937 8.35949 10.4879 8.37628C10.4821 8.39306 10.4713 8.40763 10.4568 8.41795C10.4424 8.42827 10.4251 8.43382 10.4073 8.43384C10.3896 8.43386 10.3722 8.42834 10.3578 8.41805L9.92793 8.10586C9.9134 8.09537 9.89593 8.08973 9.87801 8.08973C9.86009 8.08973 9.84262 8.09537 9.82809 8.10586L9.39824 8.41805C9.38378 8.42834 9.36646 8.43386 9.34871 8.43384C9.33095 8.43382 9.31365 8.42827 9.2992 8.41795C9.28476 8.40763 9.27389 8.39306 9.26812 8.37628C9.26234 8.35949 9.26195 8.34132 9.26699 8.3243L9.43105 7.81898C9.43639 7.80209 9.43628 7.78394 9.43073 7.76711C9.42517 7.75028 9.41446 7.73563 9.40012 7.72523L8.97168 7.41305C8.95715 7.40244 8.94635 7.38751 8.94081 7.3704C8.93527 7.35329 8.93529 7.33486 8.94085 7.31775C8.94641 7.30065 8.95724 7.28574 8.97179 7.27516C8.98633 7.26457 9.00385 7.25886 9.02184 7.25883H9.55293C9.57089 7.25884 9.58841 7.25319 9.60297 7.24267C9.61753 7.23214 9.6284 7.21729 9.63402 7.20023L9.79809 6.69492C9.80398 6.67832 9.81488 6.66395 9.82927 6.65379C9.84367 6.64362 9.86086 6.63817 9.87848 6.63817C9.8961 6.63817 9.91328 6.64362 9.92768 6.65379C9.94207 6.66395 9.95297 6.67832 9.95887 6.69492Z" fill="white"/>
<path d="M6.92793 6.69492L7.09199 7.20023C7.09762 7.21729 7.10849 7.23214 7.12305 7.24267C7.13761 7.25319 7.15512 7.25884 7.17309 7.25883H7.70605C7.72404 7.25886 7.74156 7.26457 7.7561 7.27516C7.77065 7.28574 7.78148 7.30065 7.78704 7.31775C7.7926 7.33486 7.79262 7.35329 7.78708 7.3704C7.78154 7.38751 7.77074 7.40244 7.75621 7.41305L7.32637 7.72523C7.31202 7.73563 7.30131 7.75028 7.29576 7.76711C7.2902 7.78394 7.29009 7.80209 7.29543 7.81898L7.45949 8.3243C7.46453 8.34132 7.46414 8.35949 7.45837 8.37628C7.45259 8.39306 7.44173 8.40763 7.42728 8.41795C7.41283 8.42827 7.39553 8.43382 7.37778 8.43384C7.36002 8.43386 7.34271 8.42834 7.32824 8.41805L6.89887 8.10586C6.88426 8.09533 6.86671 8.08967 6.84871 8.08967C6.83071 8.08967 6.81316 8.09533 6.79855 8.10586L6.36871 8.41805C6.35424 8.42834 6.33693 8.43386 6.31918 8.43384C6.30142 8.43382 6.28412 8.42827 6.26967 8.41795C6.25523 8.40763 6.24436 8.39306 6.23859 8.37628C6.23281 8.35949 6.23242 8.34132 6.23746 8.3243L6.40199 7.81898C6.40712 7.80207 6.4069 7.78399 6.40136 7.76721C6.39582 7.75043 6.38524 7.73577 6.37105 7.72523L5.94121 7.41305C5.92668 7.40244 5.91588 7.38751 5.91034 7.3704C5.9048 7.35329 5.90482 7.33486 5.91038 7.31775C5.91594 7.30065 5.92677 7.28574 5.94132 7.27516C5.95586 7.26457 5.97338 7.25886 5.99137 7.25883H6.52246C6.54041 7.25877 6.55789 7.25309 6.57243 7.24258C6.58698 7.23207 6.59787 7.21726 6.60355 7.20023L6.76762 6.69492C6.77361 6.67848 6.78451 6.66427 6.79885 6.65424C6.81319 6.6442 6.83027 6.63882 6.84777 6.63882C6.86527 6.63882 6.88235 6.6442 6.89669 6.65424C6.91103 6.66427 6.92194 6.67848 6.92793 6.69492Z" fill="white"/>
<path d="M1.39199 11.7513C1.3777 11.7618 1.36703 11.7764 1.36148 11.7932C1.35594 11.8101 1.35579 11.8282 1.36105 11.8451L1.52512 12.3509C1.53036 12.3679 1.53012 12.3861 1.52444 12.4029C1.51876 12.4198 1.50793 12.4344 1.49347 12.4448C1.47901 12.4552 1.46166 12.4607 1.44387 12.4607C1.42608 12.4607 1.40875 12.455 1.39434 12.4446L0.964492 12.1329C0.949972 12.1222 0.932392 12.1164 0.914336 12.1164C0.89628 12.1164 0.878699 12.1222 0.86418 12.1329L0.434805 12.4465C0.420397 12.4571 0.403003 12.4629 0.385111 12.463C0.367218 12.4631 0.349743 12.4576 0.335183 12.4472C0.320623 12.4368 0.309724 12.4221 0.304044 12.4051C0.298363 12.3881 0.298192 12.3698 0.303555 12.3527L0.467617 11.847C0.473031 11.8301 0.472954 11.8119 0.467395 11.795C0.461837 11.7782 0.451084 11.7636 0.43668 11.7532L0.00683594 11.4387C-0.00217321 11.4323 -0.00982123 11.4241 -0.0156641 11.4148C-0.0156641 11.3824 -0.0128516 11.3501 -0.0109766 11.3182C-0.00317938 11.3076 0.00707688 11.299 0.0189141 11.2932C0.0307513 11.2874 0.0438169 11.2846 0.0569922 11.2849H0.588086C0.606149 11.2848 0.623714 11.279 0.638275 11.2683C0.652837 11.2576 0.663652 11.2426 0.66918 11.2254L0.833242 10.7205C0.83883 10.7034 0.849682 10.6885 0.864247 10.678C0.878812 10.6674 0.896344 10.6617 0.914336 10.6617C0.932328 10.6617 0.94986 10.6674 0.964425 10.678C0.97899 10.6885 0.989842 10.7034 0.99543 10.7205L1.15949 11.2254C1.16502 11.2426 1.17583 11.2576 1.1904 11.2683C1.20496 11.279 1.22252 11.2848 1.24059 11.2849H1.77168C1.78969 11.2848 1.80728 11.2904 1.8219 11.3009C1.83652 11.3114 1.84741 11.3263 1.853 11.3435C1.85858 11.3606 1.85858 11.379 1.85297 11.3962C1.84737 11.4133 1.83647 11.4282 1.82184 11.4387L1.39199 11.7513Z" fill="white"/>
<path d="M9.95887 10.7205L10.1229 11.2259C10.1286 11.2429 10.1394 11.2578 10.154 11.2683C10.1685 11.2788 10.1861 11.2845 10.204 11.2845H10.7351C10.7531 11.2845 10.7706 11.2902 10.7852 11.3008C10.7997 11.3114 10.8105 11.3263 10.8161 11.3434C10.8217 11.3605 10.8217 11.3789 10.8161 11.396C10.8106 11.4131 10.7998 11.4281 10.7853 11.4387L10.3554 11.7509C10.3413 11.7615 10.3308 11.7762 10.3253 11.7929C10.3198 11.8097 10.3195 11.8277 10.3245 11.8446L10.489 12.3495C10.4941 12.3665 10.4937 12.3846 10.4879 12.4014C10.4821 12.4182 10.4713 12.4328 10.4568 12.4431C10.4424 12.4534 10.4251 12.459 10.4073 12.459C10.3896 12.459 10.3722 12.4535 10.3578 12.4432L9.92793 12.131C9.9134 12.1205 9.89593 12.1149 9.87801 12.1149C9.86009 12.1149 9.84262 12.1205 9.82809 12.131L9.39824 12.4432C9.38378 12.4535 9.36646 12.459 9.34871 12.459C9.33095 12.459 9.31365 12.4534 9.2992 12.4431C9.28476 12.4328 9.27389 12.4182 9.26812 12.4014C9.26234 12.3846 9.26195 12.3665 9.26699 12.3495L9.43105 11.8446C9.43625 11.8277 9.43607 11.8096 9.43052 11.7928C9.42498 11.776 9.41435 11.7614 9.40012 11.7509L8.97168 11.4387C8.95715 11.4281 8.94635 11.4131 8.94081 11.396C8.93527 11.3789 8.93529 11.3605 8.94085 11.3434C8.94641 11.3263 8.95724 11.3114 8.97179 11.3008C8.98633 11.2902 9.00385 11.2845 9.02184 11.2845H9.55293C9.57091 11.2845 9.58846 11.2789 9.60303 11.2684C9.61761 11.2578 9.62846 11.243 9.63402 11.2259L9.79809 10.7205C9.80398 10.7039 9.81488 10.6896 9.82927 10.6794C9.84367 10.6692 9.86086 10.6638 9.87848 10.6638C9.8961 10.6638 9.91328 10.6692 9.92768 10.6794C9.94207 10.6896 9.95297 10.7039 9.95887 10.7205Z" fill="white"/>
<path d="M6.92793 10.7205L7.09199 11.2259C7.09756 11.243 7.10841 11.2578 7.12298 11.2684C7.13756 11.2789 7.1551 11.2845 7.17309 11.2845H7.70605C7.72377 11.2851 7.74082 11.2913 7.75485 11.3022C7.76888 11.313 7.77919 11.3279 7.78434 11.3449C7.7895 11.3618 7.78924 11.38 7.78361 11.3968C7.77798 11.4136 7.76726 11.4282 7.75293 11.4387L7.32309 11.7509C7.30885 11.7614 7.29822 11.776 7.29268 11.7928C7.28714 11.8096 7.28695 11.8277 7.29215 11.8446L7.45621 12.3495C7.46125 12.3665 7.46086 12.3846 7.45509 12.4014C7.44931 12.4182 7.43845 12.4328 7.424 12.4431C7.40955 12.4534 7.39225 12.459 7.3745 12.459C7.35674 12.459 7.33943 12.4535 7.32496 12.4432L6.89559 12.131C6.88098 12.1205 6.86343 12.1148 6.84543 12.1148C6.82743 12.1148 6.80988 12.1205 6.79527 12.131L6.36543 12.4432C6.35096 12.4535 6.33365 12.459 6.3159 12.459C6.29814 12.459 6.28084 12.4534 6.26639 12.4431C6.25195 12.4328 6.24108 12.4182 6.2353 12.4014C6.22953 12.3846 6.22914 12.3665 6.23418 12.3495L6.39871 11.8446C6.4037 11.8277 6.40341 11.8097 6.39788 11.7929C6.39236 11.7762 6.38185 11.7615 6.36777 11.7509L5.93793 11.4387C5.9234 11.4281 5.9126 11.4131 5.90706 11.396C5.90152 11.3789 5.90154 11.3605 5.9071 11.3434C5.91266 11.3263 5.92349 11.3114 5.93804 11.3008C5.95258 11.2902 5.9701 11.2845 5.98809 11.2845H6.51918C6.53714 11.2845 6.55466 11.2788 6.56922 11.2683C6.58378 11.2578 6.59465 11.2429 6.60027 11.2259L6.76434 10.7205C6.76956 10.7029 6.78035 10.6874 6.79509 10.6764C6.80983 10.6654 6.82774 10.6595 6.84613 10.6595C6.86453 10.6595 6.88243 10.6654 6.89717 10.6764C6.91191 10.6874 6.9227 10.7029 6.92793 10.7205Z" fill="white"/>
<path d="M3.89652 10.7205L4.06059 11.2259C4.06624 11.2433 4.07738 11.2584 4.09233 11.2689C4.10729 11.2795 4.12525 11.2849 4.14355 11.2845H4.67465C4.69264 11.2845 4.71015 11.2902 4.7247 11.3008C4.73924 11.3114 4.75007 11.3263 4.75563 11.3434C4.7612 11.3605 4.76121 11.3789 4.75567 11.396C4.75014 11.4131 4.73933 11.4281 4.7248 11.4387L4.29496 11.7509C4.28078 11.7614 4.27019 11.7761 4.26465 11.7928C4.25912 11.8096 4.2589 11.8277 4.26402 11.8446L4.4248 12.3513C4.43004 12.3683 4.42981 12.3865 4.42413 12.4034C4.41845 12.4203 4.40761 12.4349 4.39315 12.4453C4.3787 12.4556 4.36135 12.4612 4.34356 12.4612C4.32577 12.4611 4.30844 12.4555 4.29402 12.4451L3.86418 12.1329C3.84957 12.1224 3.83203 12.1167 3.81402 12.1167C3.79602 12.1167 3.77847 12.1224 3.76387 12.1329L3.33402 12.4451C3.31961 12.4555 3.30228 12.4611 3.28449 12.4612C3.2667 12.4612 3.24935 12.4556 3.23489 12.4453C3.22043 12.4349 3.2096 12.4203 3.20392 12.4034C3.19824 12.3865 3.198 12.3683 3.20324 12.3513L3.3673 11.8465C3.37243 11.8296 3.37221 11.8115 3.36667 11.7947C3.36114 11.7779 3.35055 11.7633 3.33637 11.7527L2.90652 11.4405C2.89199 11.4299 2.88119 11.415 2.87565 11.3979C2.87012 11.3808 2.87013 11.3624 2.87569 11.3453C2.88126 11.3281 2.89208 11.3132 2.90663 11.3027C2.92117 11.2921 2.93869 11.2864 2.95668 11.2863H3.4873C3.50529 11.2864 3.52283 11.2808 3.53741 11.2703C3.55198 11.2597 3.56283 11.2448 3.5684 11.2277L3.73246 10.7224C3.73735 10.7045 3.74793 10.6887 3.7626 10.6774C3.77727 10.666 3.79524 10.6598 3.81378 10.6596C3.83233 10.6594 3.85043 10.6652 3.86536 10.6762C3.88029 10.6872 3.89123 10.7028 3.89652 10.7205Z" fill="white"/>
<path d="M13.4248 0.0555469C13.2373 0.0775781 13.0498 0.105234 12.8623 0.136172C11.6159 0.346126 10.4109 0.753424 9.29277 1.34273C9.25246 1.36336 9.21262 1.38539 9.17277 1.40648C8.93402 1.53555 8.70059 1.67227 8.47246 1.81664H5.57137C5.7998 1.67227 6.03324 1.53555 6.27168 1.40648C7.96045 0.492544 9.84497 -1.33383e-05 11.765 -0.0292969H12.1784C12.4081 -0.0260156 12.6359 -0.0152344 12.8623 0.00117187C13.0498 0.0149219 13.2373 0.0330469 13.4248 0.0555469Z" fill="#C8102E"/>
<path d="M8.47246 1.81664C8.23434 1.96602 8.0023 2.12414 7.77637 2.29102C7.7234 2.32945 7.6709 2.36883 7.6184 2.40867C7.41543 2.56336 7.21809 2.7232 7.0259 2.89008C6.99168 2.91867 6.95793 2.9482 6.92418 2.9782C6.70949 3.16805 6.5023 3.36633 6.30168 3.5707L6.36918 3.61758C6.38386 3.62825 6.39471 3.64337 6.40012 3.6607H3.31105C3.3223 3.64852 3.33496 3.6368 3.34668 3.62461C3.56543 3.39961 3.79121 3.18352 4.02402 2.97633C4.24809 2.77852 4.47855 2.58867 4.7173 2.4068C4.99293 2.19773 5.2798 1.99945 5.57137 1.81477L8.47246 1.81664Z" fill="white"/>
<path d="M6.21215 3.66258C5.91894 3.96829 5.64199 4.2892 5.38246 4.62398L5.3023 4.72898C5.25871 4.78664 5.21559 4.8443 5.17293 4.90289L5.08574 5.17148C5.0802 5.18863 5.06936 5.20358 5.05479 5.21419C5.04023 5.22481 5.02267 5.23053 5.00465 5.23055H4.94043C4.87762 5.3243 4.81668 5.41523 4.75668 5.50852L1.85746 5.50805C2.02855 5.24133 2.20996 4.9807 2.40121 4.72898C2.68352 4.35615 2.98732 4.00007 3.31105 3.66258L6.21215 3.66258Z" fill="#C8102E"/>
<path d="M4.75855 5.50805L4.70699 5.59008L4.66621 5.65477C4.41028 6.06804 4.1797 6.49649 3.97574 6.93773C3.91152 7.07508 3.85059 7.21289 3.79246 7.35352L0.891367 7.35398C0.949492 7.21336 1.01043 7.07555 1.07465 6.93773C1.27861 6.49649 1.50919 6.06804 1.76512 5.65476C1.79559 5.60789 1.82652 5.55727 1.85887 5.50805H4.75855Z" fill="white"/>
<path d="M3.79246 7.35352C3.6559 7.67977 3.53402 8.01367 3.42684 8.3543C3.33934 8.63148 3.26121 8.91273 3.19246 9.19805H0.293242C0.360117 8.91211 0.438242 8.63086 0.527617 8.3543C0.634805 8.01305 0.75668 7.6793 0.893242 7.35305L3.79246 7.35352Z" fill="#C8102E"/>
<path d="M3.20605 9.38695L3.13996 9.43383C3.02517 9.96472 2.94686 10.5029 2.90559 11.0445L0.00683594 11.0454C0.0538133 10.4235 0.149577 9.80631 0.293242 9.19945L3.19434 9.19851C3.19152 9.21117 3.18824 9.2243 3.18543 9.23648C3.20025 9.24168 3.21335 9.25086 3.22329 9.26302C3.23323 9.27518 3.23961 9.28985 3.24174 9.30541C3.24388 9.32097 3.24167 9.33682 3.23538 9.35121C3.22908 9.36559 3.21893 9.37796 3.20605 9.38695Z" fill="white"/>
<path d="M2.87277 11.9684C2.87277 12.2787 2.88449 12.5863 2.90793 12.8913H0.00683594C-0.0166016 12.5866 -0.0283203 12.279 -0.0283203 11.9684V11.3707C-0.0282736 11.3863 -0.0238912 11.4015 -0.0156641 11.4148C-0.0156641 11.3824 -0.0128516 11.3501 -0.0109766 11.3182C-0.00628906 11.2268 -0.000195314 11.1363 0.00683594 11.0454L2.90793 11.0454C2.9009 11.1363 2.8948 11.2268 2.89012 11.3182C2.89012 11.3501 2.88684 11.3824 2.88543 11.4148C2.88117 11.4083 2.878 11.4012 2.87605 11.3937C2.87605 11.3895 2.87605 11.3857 2.87371 11.382C2.87346 11.3782 2.87346 11.3744 2.87371 11.3707L2.87277 11.9684Z" fill="#C8102E"/>
<path d="M12.8623 0.00117187V0.136172C11.6159 0.346126 10.4109 0.753424 9.29277 1.34273C9.25246 1.36336 9.21262 1.38539 9.17277 1.40648C8.93402 1.53555 8.70059 1.67227 8.47246 1.81664C8.23434 1.96602 8.0023 2.12414 7.77637 2.29102C7.7234 2.32945 7.6709 2.36883 7.6184 2.40867C7.41543 2.56336 7.21809 2.7232 7.0259 2.89008C6.99168 2.91867 6.95793 2.9482 6.92418 2.9782C6.70949 3.16805 6.5023 3.36633 6.30168 3.5707L6.36918 3.61758C6.38386 3.62825 6.39471 3.64337 6.40012 3.6607H6.21262C5.9194 3.96642 5.64246 4.28733 5.38293 4.62211L5.30277 4.72711C5.25918 4.78477 5.21605 4.84242 5.1734 4.90102L5.08574 5.17148C5.0802 5.18863 5.06936 5.20358 5.05479 5.21419C5.04023 5.22481 5.02267 5.23053 5.00465 5.23055H4.94043C4.87762 5.3243 4.81668 5.41523 4.75668 5.50852L4.70512 5.59055L4.66434 5.65523C4.40841 6.06851 4.17782 6.49696 3.97387 6.9382C3.90965 7.07555 3.84871 7.21336 3.79059 7.35398C3.65527 7.68023 3.53402 8.01367 3.42684 8.3543C3.33934 8.63148 3.26121 8.91273 3.19246 9.19805C3.18965 9.2107 3.18637 9.22383 3.18355 9.23602C3.19825 9.24115 3.21127 9.25021 3.22118 9.26222C3.2311 9.27422 3.23754 9.28871 3.23981 9.30412C3.24208 9.31952 3.24009 9.33525 3.23406 9.34961C3.22802 9.36396 3.21818 9.37639 3.20559 9.38555L3.13949 9.43242C3.0247 9.96332 2.94639 10.5015 2.90512 11.043C2.89809 11.134 2.89199 11.2245 2.8873 11.3159C2.8873 11.3477 2.88402 11.3801 2.88262 11.4124C2.87836 11.4059 2.87519 11.3988 2.87324 11.3913C2.87324 11.3871 2.87324 11.3834 2.8709 11.3796C2.87065 11.3759 2.87065 11.3721 2.8709 11.3684V11.9684C2.8709 12.2787 2.88262 12.5863 2.90605 12.8913L0.00683594 12.8913C-0.0166016 12.5866 -0.0283203 12.279 -0.0283203 11.9684V11.3707C-0.0282736 11.3863 -0.0238912 11.4015 -0.0156641 11.4148C-0.0156641 11.3824 -0.0128516 11.3501 -0.0109766 11.3182C-0.00628906 11.2268 -0.000195314 11.1363 0.00683594 11.0454C0.0538133 10.4235 0.149577 9.80631 0.293242 9.19945C0.360117 8.91351 0.438242 8.63226 0.527617 8.3557C0.634805 8.01445 0.75668 7.6807 0.893242 7.35445C0.951367 7.21383 1.0123 7.07602 1.07652 6.9382C1.28048 6.49696 1.51106 6.06851 1.76699 5.65523C1.79746 5.60836 1.8284 5.55773 1.86074 5.50852C2.03184 5.2418 2.21324 4.98117 2.40449 4.72945C2.68573 4.35654 2.98843 4.00032 3.31105 3.66258C3.3223 3.65039 3.33402 3.63867 3.34574 3.62648C3.56449 3.40148 3.79027 3.18539 4.02309 2.9782C4.24715 2.78039 4.47855 2.59055 4.7173 2.40867C4.99293 2.19961 5.2798 2.00133 5.57137 1.81664C5.7998 1.67227 6.03324 1.53555 6.27168 1.40648C7.96045 0.492544 9.84497 -1.33383e-05 11.765 -0.0292969H12.1784C12.4081 -0.0260156 12.6359 -0.0152344 12.8623 0.00117187Z" fill="#012169"/>
<path d="M5.77574 1.81664C5.77146 1.83197 5.77146 1.84818 5.77574 1.86352L5.94027 2.36789C5.94532 2.38491 5.94492 2.40308 5.93915 2.41987C5.93337 2.43666 5.92251 2.45123 5.90806 2.46154C5.89362 2.47186 5.87631 2.47742 5.85856 2.47743C5.8408 2.47745 5.82349 2.47193 5.80902 2.46164L5.37918 2.14992C5.36465 2.13943 5.34718 2.13379 5.32926 2.13379C5.31134 2.13379 5.29387 2.13943 5.27934 2.14992L4.84949 2.46164C4.83784 2.47025 4.82418 2.47574 4.80981 2.47757C4.79544 2.47941 4.78084 2.47754 4.7674 2.47213C4.75396 2.46673 4.74213 2.45797 4.73303 2.4467C4.72393 2.43543 4.71787 2.42201 4.71543 2.40773C4.99105 2.19867 5.27793 2.00039 5.56949 1.8157C5.79793 1.67133 6.03137 1.53461 6.2698 1.40555C6.26443 1.42453 6.25268 1.44109 6.23652 1.45242L5.80668 1.76461C5.79045 1.77767 5.77947 1.79614 5.77574 1.81664Z" fill="white"/>
<path d="M5.38246 4.62398L5.3023 4.72898C5.25871 4.78664 5.21559 4.8443 5.17293 4.90289L5.2498 4.66851C5.25367 4.65533 5.26067 4.64328 5.27019 4.63338C5.27972 4.62348 5.29149 4.61602 5.30452 4.61165C5.31754 4.60728 5.33143 4.60612 5.345 4.60826C5.35857 4.61041 5.37142 4.6158 5.38246 4.62398Z" fill="white"/>
<path d="M3.20605 5.38477L3.0359 5.50805L2.77621 5.69555C2.76197 5.70604 2.75135 5.7207 2.7458 5.73749C2.74026 5.75429 2.74008 5.77239 2.74527 5.7893L2.91074 6.29648C2.91549 6.31346 2.91489 6.33148 2.90903 6.3481C2.90316 6.36472 2.89233 6.37913 2.87799 6.38937C2.86364 6.39962 2.8465 6.4052 2.82887 6.40535C2.81125 6.4055 2.79401 6.40023 2.77949 6.39023L2.35012 6.07758C2.33551 6.06705 2.31796 6.06139 2.29996 6.06139C2.28196 6.06139 2.26441 6.06705 2.2498 6.07758L1.81996 6.39023C1.80544 6.40023 1.7882 6.4055 1.77058 6.40535C1.75296 6.4052 1.73581 6.39962 1.72147 6.38937C1.70713 6.37913 1.69629 6.36472 1.69043 6.3481C1.68457 6.33148 1.68397 6.31346 1.68871 6.29648L1.85324 5.79164C1.85823 5.77472 1.85794 5.75668 1.85242 5.73993C1.84689 5.72318 1.83638 5.70852 1.8223 5.69789L1.76512 5.65617C1.79559 5.6093 1.82652 5.55867 1.85887 5.50945C2.02996 5.24273 2.21137 4.98211 2.40262 4.73039L2.54512 5.17148C2.55066 5.18863 2.5615 5.20358 2.57607 5.21419C2.59063 5.22481 2.60819 5.23053 2.62621 5.23055H3.15918C3.17675 5.23151 3.1936 5.23784 3.20745 5.2487C3.22129 5.25956 3.23146 5.27442 3.23658 5.29125C3.2417 5.30809 3.24151 5.32609 3.23605 5.34282C3.23059 5.35955 3.22012 5.37419 3.20605 5.38477Z" fill="white"/>
<path d="M3.20605 9.38695L3.13996 9.43383L2.77621 9.69914C2.76186 9.70954 2.75115 9.72419 2.7456 9.74102C2.74005 9.75785 2.73993 9.77599 2.74527 9.79289L2.90934 10.2982C2.91438 10.3152 2.91398 10.3334 2.90821 10.3502C2.90244 10.367 2.89157 10.3815 2.87712 10.3919C2.86268 10.4022 2.84537 10.4077 2.82762 10.4077C2.80987 10.4078 2.79255 10.4022 2.77809 10.392L2.34871 10.0798C2.33411 10.0692 2.31656 10.0636 2.29855 10.0636C2.28055 10.0636 2.263 10.0692 2.2484 10.0798L1.81855 10.392C1.80409 10.4022 1.78677 10.4078 1.76902 10.4077C1.75127 10.4077 1.73396 10.4022 1.71952 10.3919C1.70507 10.3815 1.6942 10.367 1.68843 10.3502C1.68266 10.3334 1.68226 10.3152 1.6873 10.2982L1.85184 9.79289C1.85696 9.77598 1.85674 9.7579 1.85121 9.74112C1.84567 9.72434 1.83508 9.70968 1.8209 9.69914L1.39105 9.38695C1.37653 9.37635 1.36572 9.36142 1.36018 9.34431C1.35465 9.32719 1.35466 9.30877 1.36023 9.29166C1.36579 9.27456 1.37662 9.25965 1.39116 9.24906C1.40571 9.23848 1.42322 9.23276 1.44121 9.23273H1.97371C1.98676 9.23272 1.99963 9.22877 2.01133 9.223C2.02303 9.21723 2.03325 9.20885 2.04121 9.19852C2.04702 9.19066 2.0516 9.18197 2.0548 9.17273L2.21887 8.66883C2.22445 8.65173 2.23531 8.63683 2.24987 8.62626C2.26444 8.6157 2.28197 8.61001 2.29996 8.61001C2.31795 8.61001 2.33548 8.6157 2.35005 8.62626C2.36461 8.63683 2.37547 8.65173 2.38105 8.66883L2.54512 9.17273C2.54832 9.18197 2.5529 9.19066 2.55871 9.19852C2.56667 9.20885 2.57689 9.21723 2.58859 9.223C2.60029 9.22877 2.61316 9.23272 2.62621 9.23273H3.15918C3.16875 9.23277 3.17824 9.23341 3.1873 9.23648C3.202 9.24189 3.21493 9.25123 3.22467 9.2635C3.23441 9.27576 3.23981 9.28987 3.24174 9.30541C3.24388 9.32097 3.24167 9.33682 3.23538 9.35121C3.22908 9.36559 3.21893 9.37796 3.20605 9.38695Z" fill="white"/>
<path d="M4.26215 3.66258C4.25675 3.67966 4.25675 3.69799 4.26215 3.71508L4.4248 4.21992C4.42973 4.23687 4.42928 4.25494 4.42351 4.27162C4.41774 4.28831 4.40694 4.30279 4.39259 4.31307C4.37824 4.32336 4.36105 4.32894 4.3434 4.32905C4.32575 4.32915 4.3085 4.32378 4.29402 4.31367L3.86418 4.00101C3.84957 3.99049 3.83203 3.98482 3.81402 3.98482C3.79602 3.98482 3.77847 3.99049 3.76387 4.00101L3.33402 4.31367C3.31955 4.32378 3.3023 4.32915 3.28465 4.32905C3.26699 4.32894 3.24981 4.32336 3.23546 4.31307C3.22111 4.30279 3.21031 4.28831 3.20454 4.27162C3.19877 4.25494 3.19831 4.23687 3.20324 4.21992L3.3673 3.71508C3.3727 3.69799 3.3727 3.67966 3.3673 3.66258C3.36418 3.64822 3.35702 3.63505 3.34668 3.62461C3.56543 3.39961 3.79121 3.18352 4.02402 2.97633L4.06152 3.09211C4.06679 3.10976 4.07762 3.12523 4.09241 3.13622C4.10719 3.1472 4.12514 3.15311 4.14355 3.15305H4.67465C4.69261 3.15324 4.71006 3.15907 4.72454 3.16971C4.73901 3.18036 4.74978 3.19528 4.75532 3.21236C4.76086 3.22945 4.7609 3.24785 4.75542 3.26496C4.74995 3.28207 4.73924 3.29703 4.7248 3.30773L4.29496 3.61945C4.27958 3.62983 4.26805 3.64499 4.26215 3.66258Z" fill="white"/>
<path d="M1.85652 7.35398C1.85533 7.36568 1.85162 7.37698 1.84563 7.3871C1.83964 7.39722 1.83152 7.40591 1.82184 7.41258L1.39199 7.72523C1.37781 7.73577 1.36722 7.75043 1.36169 7.76721C1.35615 7.78399 1.35593 7.80207 1.36105 7.81898L1.52512 8.3243C1.53036 8.3413 1.53012 8.35951 1.52444 8.37637C1.51876 8.39323 1.50793 8.40788 1.49347 8.41824C1.47901 8.4286 1.46166 8.43416 1.44387 8.43413C1.42608 8.43409 1.40875 8.42847 1.39434 8.41805L0.964492 8.10633C0.950064 8.09538 0.932449 8.08945 0.914336 8.08945C0.896223 8.08945 0.878608 8.09538 0.86418 8.10633L0.525742 8.35242C0.63293 8.01117 0.754805 7.67742 0.891367 7.35117C0.949492 7.21055 1.01043 7.07273 1.07465 6.93492L1.15949 7.19695C1.16502 7.21415 1.17583 7.22916 1.1904 7.23985C1.20496 7.25054 1.22252 7.25636 1.24059 7.25648H1.77168C1.78395 7.25643 1.79608 7.25901 1.80726 7.26407C1.81844 7.26913 1.82839 7.27654 1.83644 7.28579C1.8445 7.29505 1.85046 7.30593 1.85392 7.3177C1.85739 7.32947 1.85828 7.34184 1.85652 7.35398Z" fill="white"/>
<path d="M1.39199 11.7513C1.3777 11.7618 1.36703 11.7764 1.36148 11.7932C1.35594 11.8101 1.35579 11.8282 1.36105 11.8451L1.52512 12.3509C1.53036 12.3679 1.53012 12.3861 1.52444 12.4029C1.51876 12.4198 1.50793 12.4344 1.49347 12.4448C1.47901 12.4552 1.46166 12.4607 1.44387 12.4607C1.42608 12.4607 1.40875 12.455 1.39434 12.4446L0.964492 12.1329C0.949972 12.1222 0.932392 12.1164 0.914336 12.1164C0.89628 12.1164 0.878699 12.1222 0.86418 12.1329L0.434805 12.4465C0.420397 12.4571 0.403003 12.4629 0.385111 12.463C0.367218 12.4631 0.349743 12.4576 0.335183 12.4472C0.320623 12.4368 0.309724 12.4221 0.304044 12.4051C0.298363 12.3881 0.298192 12.3698 0.303555 12.3527L0.467617 11.847C0.473031 11.8301 0.472954 11.8119 0.467395 11.795C0.461837 11.7782 0.451084 11.7636 0.43668 11.7532L0.00683594 11.4387C-0.00217321 11.4323 -0.00982123 11.4241 -0.0156641 11.4148C-0.0156641 11.3824 -0.0128516 11.3501 -0.0109766 11.3182C-0.00317938 11.3076 0.00707688 11.299 0.0189141 11.2932C0.0307513 11.2874 0.0438169 11.2846 0.0569922 11.2849H0.588086C0.606149 11.2848 0.623714 11.279 0.638275 11.2683C0.652837 11.2576 0.663652 11.2426 0.66918 11.2254L0.833242 10.7205C0.83883 10.7034 0.849682 10.6885 0.864247 10.678C0.878812 10.6674 0.896344 10.6617 0.914336 10.6617C0.932328 10.6617 0.94986 10.6674 0.964425 10.678C0.97899 10.6885 0.989842 10.7034 0.99543 10.7205L1.15949 11.2254C1.16502 11.2426 1.17583 11.2576 1.1904 11.2683C1.20496 11.279 1.22252 11.2848 1.24059 11.2849H1.77168C1.78969 11.2848 1.80728 11.2904 1.8219 11.3009C1.83652 11.3114 1.84741 11.3263 1.853 11.3435C1.85858 11.3606 1.85858 11.379 1.85297 11.3962C1.84737 11.4133 1.83647 11.4282 1.82184 11.4387L1.39199 11.7513Z" fill="white"/>
<path d="M2.87371 11.3707C2.87378 11.3518 2.87891 11.3334 2.89012 11.3182C2.89012 11.3501 2.88684 11.3824 2.88543 11.4148C2.88117 11.4083 2.878 11.4012 2.87605 11.3937C2.87605 11.3895 2.87605 11.3857 2.87371 11.382C2.87346 11.3782 2.87346 11.3744 2.87371 11.3707Z" fill="white"/>
<path d="M3.89652 6.69492L4.06059 7.20023C4.06631 7.2176 4.07746 7.23267 4.0924 7.24322C4.10734 7.25377 4.12527 7.25924 4.14355 7.25883H4.67465C4.69264 7.25886 4.71015 7.26457 4.7247 7.27516C4.73924 7.28574 4.75007 7.30065 4.75563 7.31776C4.7612 7.33486 4.76121 7.35329 4.75567 7.3704C4.75014 7.38752 4.73933 7.40244 4.7248 7.41305L4.29496 7.72523C4.28067 7.73568 4.27 7.75034 4.26445 7.76715C4.2589 7.78396 4.25875 7.80208 4.26402 7.81898L4.4248 8.3257C4.43004 8.3427 4.42981 8.36092 4.42413 8.37778C4.41845 8.39464 4.40761 8.40928 4.39315 8.41965C4.3787 8.43001 4.36135 8.43557 4.34356 8.43553C4.32577 8.4355 4.30844 8.42987 4.29402 8.41945L3.86418 8.10727C3.84957 8.09674 3.83203 8.09107 3.81402 8.09107C3.79602 8.09107 3.77847 8.09674 3.76387 8.10727L3.33402 8.41945C3.31961 8.42987 3.30228 8.4355 3.28449 8.43553C3.2667 8.43557 3.24935 8.43001 3.23489 8.41965C3.22043 8.40928 3.2096 8.39464 3.20392 8.37778C3.19824 8.36092 3.198 8.3427 3.20324 8.3257L3.3673 7.82039C3.37257 7.80349 3.37242 7.78536 3.36687 7.76855C3.36133 7.75174 3.35066 7.73709 3.33637 7.72664L2.90652 7.41445C2.89199 7.40385 2.88119 7.38892 2.87565 7.37181C2.87012 7.35469 2.87013 7.33627 2.87569 7.31916C2.88126 7.30206 2.89208 7.28715 2.90663 7.27656C2.92117 7.26598 2.93869 7.26026 2.95668 7.26023H3.4873C3.50527 7.26025 3.52278 7.25459 3.53734 7.24407C3.5519 7.23355 3.56277 7.2187 3.5684 7.20164L3.73246 6.69633C3.7374 6.67846 3.74802 6.66268 3.76273 6.65139C3.77744 6.64009 3.79542 6.6339 3.81396 6.63374C3.8325 6.63358 3.85059 6.63946 3.86549 6.6505C3.88038 6.66154 3.89128 6.67714 3.89652 6.69492Z" fill="white"/>
<path d="M3.97574 6.93773C3.91152 7.07508 3.85059 7.21289 3.79246 7.35352C3.6559 7.67977 3.53402 8.01367 3.42684 8.3543L3.33543 8.41992C3.32101 8.43034 3.30368 8.43597 3.2859 8.436C3.26811 8.43604 3.25076 8.43048 3.2363 8.42012C3.22184 8.40975 3.21101 8.3951 3.20533 8.37825C3.19965 8.36139 3.19941 8.34317 3.20465 8.32617L3.36871 7.82086C3.37398 7.80396 3.37383 7.78583 3.36828 7.76902C3.36273 7.75221 3.35207 7.73756 3.33777 7.72711L2.90793 7.41445C2.89825 7.40779 2.89013 7.39909 2.88414 7.38897C2.87815 7.37886 2.87443 7.36756 2.87324 7.35586C2.87206 7.34401 2.87338 7.33204 2.87711 7.32073C2.88084 7.30941 2.88689 7.29901 2.89488 7.29018C2.90287 7.28135 2.91263 7.27429 2.92351 7.26945C2.9344 7.26462 2.94618 7.26212 2.95809 7.26211H3.4873C3.50537 7.26199 3.52293 7.25617 3.53749 7.24548C3.55206 7.23479 3.56287 7.21884 3.5684 7.20164L3.73246 6.69633C3.73805 6.67923 3.7489 6.66526 3.76347 6.6547C3.77803 6.64414 3.79556 6.63845 3.81355 6.63845C3.83155 6.63845 3.84908 6.64414 3.86364 6.6547C3.87821 6.66526 3.88906 6.68016 3.89465 6.69727L3.97574 6.93773Z" fill="white"/>
<path d="M5.41199 4.66617L5.57605 5.17148C5.58168 5.18854 5.59255 5.20339 5.60711 5.21392C5.62167 5.22444 5.63918 5.23009 5.65715 5.23008H6.18824C6.20623 5.23011 6.22375 5.23582 6.23829 5.24641C6.25284 5.25699 6.26366 5.2719 6.26923 5.289C6.27479 5.30611 6.2748 5.32454 6.26927 5.34165C6.26373 5.35876 6.25293 5.37369 6.2384 5.3843L5.80855 5.69648C5.79437 5.70702 5.78378 5.72168 5.77825 5.73846C5.77271 5.75524 5.77249 5.77332 5.77762 5.79023L5.94215 6.29648C5.94719 6.31351 5.9468 6.33168 5.94102 6.34846C5.93525 6.36525 5.92438 6.37982 5.90994 6.39014C5.89549 6.40046 5.87818 6.40601 5.86043 6.40603C5.84268 6.40605 5.82536 6.40052 5.8109 6.39023L5.38105 6.07805C5.36652 6.06756 5.34905 6.06192 5.33113 6.06192C5.31321 6.06192 5.29574 6.06756 5.28121 6.07805L4.85137 6.39023C4.8369 6.40052 4.81958 6.40605 4.80183 6.40603C4.78408 6.40601 4.76677 6.40046 4.75233 6.39014C4.73788 6.37982 4.72702 6.36525 4.72124 6.34846C4.71547 6.33168 4.71507 6.31351 4.72012 6.29648L4.88418 5.79117C4.88952 5.77428 4.88941 5.75613 4.88385 5.7393C4.8783 5.72247 4.86759 5.70782 4.85324 5.69742L4.4248 5.3843C4.41047 5.37386 4.39975 5.35923 4.39412 5.34242C4.38849 5.32562 4.38824 5.30747 4.39339 5.29051C4.39854 5.27356 4.40885 5.25862 4.42288 5.24779C4.43691 5.23696 4.45397 5.23077 4.47168 5.23008H5.00277C5.02107 5.23057 5.03984 5.22476 5.05479 5.21419C5.06936 5.20358 5.0802 5.18863 5.08574 5.17148L5.2498 4.66617C5.25539 4.64907 5.26624 4.63417 5.28081 4.62361C5.29537 4.61304 5.31291 4.60735 5.3309 4.60735C5.34889 4.60735 5.36642 4.61304 5.38099 4.62361C5.39555 4.63417 5.4064 4.64907 5.41199 4.66617Z" fill="white"/>
<path d="M4.47168 5.23008L4.94043 5.23055C4.87762 5.3243 4.81668 5.41523 4.75668 5.50852L4.70512 5.59055L4.59168 5.50805L4.4248 5.3843C4.41047 5.37386 4.39975 5.35923 4.39412 5.34242C4.38849 5.32562 4.38824 5.30747 4.39339 5.29051C4.39854 5.27356 4.40885 5.25862 4.42288 5.24779C4.43691 5.23696 4.45397 5.23077 4.47168 5.23008Z" fill="white"/>
<path d="M6.92793 2.58914L7.09199 3.09445C7.09755 3.11155 7.10841 3.12644 7.12298 3.13697C7.13756 3.14751 7.1551 3.15313 7.17309 3.15305H7.70605C7.72377 3.15374 7.74082 3.15993 7.75485 3.17076C7.76888 3.18159 7.77919 3.19653 7.78434 3.21348C7.7895 3.23044 7.78924 3.24858 7.78361 3.26539C7.77798 3.2822 7.76726 3.29683 7.75293 3.30727L7.32309 3.61945C7.30874 3.62985 7.29803 3.6445 7.29247 3.66133C7.28692 3.67816 7.28681 3.69631 7.29215 3.7132L7.45621 4.21852C7.46125 4.23554 7.46086 4.25371 7.45509 4.27049C7.44931 4.28728 7.43844 4.30185 7.424 4.31217C7.40955 4.32249 7.39225 4.32804 7.3745 4.32806C7.35674 4.32808 7.33943 4.32256 7.32496 4.31227L6.89559 4.00008C6.88098 3.98955 6.86343 3.98389 6.84543 3.98389C6.82743 3.98389 6.80988 3.98955 6.79527 4.00008L6.36543 4.31227C6.35096 4.32256 6.33365 4.32808 6.31589 4.32806C6.29814 4.32804 6.28084 4.32249 6.26639 4.31217C6.25194 4.30185 6.24108 4.28728 6.2353 4.27049C6.22953 4.25371 6.22914 4.23554 6.23418 4.21852L6.39871 3.7132C6.40384 3.69629 6.40362 3.67821 6.39808 3.66143C6.39254 3.64465 6.38196 3.62999 6.36777 3.61945L5.93793 3.30727C5.9234 3.29666 5.9126 3.28173 5.90706 3.26462C5.90152 3.24751 5.90154 3.22908 5.9071 3.21197C5.91266 3.19487 5.92349 3.17996 5.93804 3.16938C5.95258 3.15879 5.9701 3.15308 5.98809 3.15305H6.51918C6.53714 3.15306 6.55466 3.14741 6.56922 3.13688C6.58378 3.12636 6.59465 3.11151 6.60027 3.09445L6.76434 2.58914C6.76956 2.5715 6.78035 2.55603 6.79509 2.54502C6.80983 2.53401 6.82774 2.52807 6.84613 2.52807C6.86453 2.52807 6.88243 2.53401 6.89717 2.54502C6.91191 2.55603 6.9227 2.5715 6.92793 2.58914Z" fill="white"/>
<path d="M7.0259 2.89008C6.99168 2.91867 6.95793 2.9482 6.92418 2.9782C6.70949 3.16805 6.5023 3.36633 6.30168 3.5707L5.93934 3.30773C5.92461 3.29719 5.91272 3.28182 5.90706 3.26462C5.90152 3.24751 5.90154 3.22908 5.9071 3.21197C5.91269 3.19474 5.92434 3.17981 5.93902 3.16921C5.9537 3.1586 5.97138 3.15294 5.98949 3.15305H6.52059C6.53859 3.15296 6.55611 3.14721 6.57067 3.13661C6.58522 3.12601 6.59607 3.11109 6.60168 3.09398L6.76574 2.58961C6.77133 2.57251 6.78218 2.55761 6.79675 2.54704C6.81131 2.53648 6.82884 2.53079 6.84684 2.53079C6.86483 2.53079 6.88236 2.53648 6.89692 2.54704C6.91149 2.55761 6.92234 2.57204 6.92793 2.58914L7.0259 2.89008Z" fill="white"/>
<path d="M8.4434 0.737109L8.60746 1.24195C8.6131 1.25941 8.62422 1.27458 8.63917 1.28522C8.65411 1.29586 8.67209 1.3014 8.69043 1.30102H9.22152C9.23951 1.30105 9.25703 1.30676 9.27157 1.31734C9.28612 1.32793 9.29695 1.34284 9.30251 1.35994C9.30807 1.37705 9.30809 1.39547 9.30255 1.41259C9.29701 1.4297 9.28621 1.44463 9.27168 1.45523L8.84184 1.76742C8.82754 1.77787 8.81688 1.79252 8.81133 1.80933C8.80578 1.82615 8.80563 1.84427 8.8109 1.86117L8.97168 2.36789C8.97692 2.38489 8.97668 2.40311 8.971 2.41997C8.96532 2.43682 8.95449 2.45147 8.94003 2.46183C8.92557 2.4722 8.90822 2.47776 8.89043 2.47772C8.87264 2.47769 8.85532 2.47206 8.8409 2.46164L8.41105 2.14945C8.39645 2.13893 8.3789 2.13326 8.3609 2.13326C8.34289 2.13326 8.32535 2.13893 8.31074 2.14945L7.8809 2.46164C7.86648 2.47206 7.84915 2.47769 7.83136 2.47772C7.81357 2.47776 7.79622 2.4722 7.78177 2.46183C7.76731 2.45147 7.75647 2.43682 7.75079 2.41997C7.74511 2.40311 7.74488 2.38489 7.75012 2.36789L7.91418 1.86258C7.91945 1.84568 7.9193 1.82755 7.91375 1.81074C7.9082 1.79393 7.89754 1.77927 7.88324 1.76883L7.4534 1.45664C7.43887 1.44604 7.42807 1.43111 7.42253 1.41399C7.41699 1.39688 7.41701 1.37845 7.42257 1.36135C7.42813 1.34424 7.43896 1.32933 7.45351 1.31875C7.46805 1.30817 7.48557 1.30245 7.50355 1.30242H8.03418C8.0522 1.3024 8.06976 1.29668 8.08433 1.28607C8.09889 1.27546 8.10973 1.26051 8.11527 1.24336L8.27934 0.738516C8.28427 0.720643 8.2949 0.704866 8.30961 0.693572C8.32431 0.682279 8.3423 0.676083 8.36084 0.675924C8.37938 0.675766 8.39747 0.681652 8.41236 0.692692C8.42726 0.703731 8.43815 0.719324 8.4434 0.737109Z" fill="white"/>
<path d="M9.29277 1.34273C9.25246 1.36336 9.21262 1.38539 9.17277 1.40648C8.93402 1.53555 8.70059 1.67227 8.47246 1.81664C8.23434 1.96602 8.0023 2.12414 7.77637 2.29102L7.91699 1.86305C7.92127 1.84771 7.92127 1.8315 7.91699 1.81617C7.91238 1.79621 7.90073 1.77857 7.88418 1.76648L7.45434 1.4543C7.43971 1.44379 7.4288 1.4289 7.4232 1.41178C7.4176 1.39466 7.41759 1.3762 7.42317 1.35907C7.42876 1.34195 7.43965 1.32705 7.45427 1.31653C7.46889 1.306 7.48648 1.30041 7.50449 1.30055H8.03418C8.05216 1.30063 8.06971 1.29501 8.08428 1.28447C8.09886 1.27394 8.10971 1.25905 8.11527 1.24195L8.27934 0.736172C8.28492 0.719069 8.29504 0.704136 8.30961 0.693572C8.32417 0.683009 8.34244 0.677355 8.36043 0.677355C8.37842 0.677355 8.39595 0.683044 8.41052 0.693607C8.42508 0.704171 8.43594 0.719069 8.44152 0.736172L8.60559 1.24195C8.61125 1.25977 8.62263 1.27522 8.63797 1.2859C8.65332 1.29658 8.67176 1.30189 8.69043 1.30102H9.22152C9.23601 1.30114 9.25021 1.30506 9.26271 1.31238C9.27521 1.3197 9.28557 1.33017 9.29277 1.34273Z" fill="white"/>
</g>
<line x1="20.9695" y1="4.02789" x2="3.42513" y2="20.4046" stroke="white" stroke-width="2"/>
</g>
<defs>
<clipPath id="clip0_487_1036">
<rect width="24" height="24" fill="white"/>
</clipPath>
</defs>
</svg>
