<svg viewBox="0 0 24 24" fill="none" xmlns="http://www.w3.org/2000/svg">
<mask id="mask0_186_882" style="mask-type:luminance" maskUnits="userSpaceOnUse" x="2" y="2" width="20" height="20">
<path d="M2 2H22V22H2V2Z" fill="white"/>
</mask>
<g mask="url(#mask0_186_882)">
<path fill-rule="evenodd" clip-rule="evenodd" d="M3.26578 14.7664C4.23211 12.7906 5.95313 10.4451 8.19918 8.19913C10.4454 5.95296 12.791 4.23187 14.7668 3.26554C13.6254 2.70523 12.3416 2.39054 10.9844 2.39054C6.23816 2.39054 2.39062 6.23812 2.39062 10.9843C2.39062 12.3397 2.70496 13.6239 3.26578 14.7664Z" fill="#FF9EB1"/>
<path fill-rule="evenodd" clip-rule="evenodd" d="M8.11797 12.5224C8.65297 12.5224 9.08672 12.9561 9.08672 13.4911C9.08672 14.0261 8.65297 14.4599 8.11797 14.4599C7.58297 14.4599 7.14922 14.0261 7.14922 13.4911C7.14922 12.9561 7.58297 12.5224 8.11797 12.5224ZM13.3914 9.50673C13.3914 8.6438 14.091 7.94423 14.9539 7.94423C15.8168 7.94423 16.5164 8.6438 16.5164 9.50673C16.5164 10.3697 15.8168 11.0692 14.9539 11.0692C14.091 11.0692 13.3914 10.3697 13.3914 9.50673ZM14.7676 3.26567C12.7918 4.232 10.4462 5.9531 8.2 8.19927C5.95398 10.4453 4.23293 12.7908 3.2666 14.7665C4.1043 16.4731 5.49184 17.8635 7.20293 18.7031C8.25481 19.2193 9.42895 19.5273 10.6727 19.5725V15.3595H18.3819C19.1655 14.0347 19.5789 12.5237 19.5789 10.9844C19.5789 9.62716 19.2643 8.34337 18.7039 7.20204C17.8652 5.49364 16.476 4.10442 14.7676 3.26567Z" fill="#FF9EB1"/>
<path fill-rule="evenodd" clip-rule="evenodd" d="M9.08594 13.491C9.08594 12.956 8.65219 12.5222 8.11719 12.5222C7.58219 12.5222 7.14844 12.956 7.14844 13.491C7.14844 14.026 7.58219 14.4597 8.11719 14.4597C8.65219 14.4597 9.08594 14.026 9.08594 13.491Z" fill="#FF5D7D"/>
<path fill-rule="evenodd" clip-rule="evenodd" d="M13.3906 9.50659C13.3906 10.3695 14.0902 11.0691 14.9531 11.0691C15.8161 11.0691 16.5156 10.3695 16.5156 9.50659C16.5156 8.64366 15.8161 7.94409 14.9531 7.94409C14.0902 7.94409 13.3906 8.64366 13.3906 9.50659Z" fill="#FF5D7D"/>
<path fill-rule="evenodd" clip-rule="evenodd" d="M18.381 15.3594H10.6719V19.5724V21.6094H21.6094V15.3594H18.381Z" fill="#CBE558"/>
<path d="M16.1406 16.9219C16.5703 16.9219 16.9219 17.2734 16.9219 17.7031V19.2656C16.9219 19.6953 16.5703 20.0469 16.1406 20.0469C15.7109 20.0469 15.3594 19.6953 15.3594 19.2656V17.7031C15.3594 17.2734 15.7109 16.9219 16.1406 16.9219Z" stroke="black" stroke-width="0.78125" stroke-miterlimit="22.926" stroke-linecap="round" stroke-linejoin="round"/>
<path d="M13.9922 16.9219V20.0469" stroke="black" stroke-width="0.78125" stroke-miterlimit="22.926" stroke-linecap="round" stroke-linejoin="round"/>
<path d="M13.8359 18.875H12.4297V16.9218" stroke="black" stroke-width="0.78125" stroke-miterlimit="22.926" stroke-linecap="round" stroke-linejoin="round"/>
<path d="M19.8516 16.9219V20.0469" stroke="black" stroke-width="0.78125" stroke-miterlimit="22.926" stroke-linecap="round" stroke-linejoin="round"/>
<path d="M19.6954 18.875H18.2891V16.9218" stroke="black" stroke-width="0.78125" stroke-miterlimit="22.926" stroke-linecap="round" stroke-linejoin="round"/>
<path d="M10.6719 21.6094H21.6094V15.3594H10.6719V21.6094Z" stroke="black" stroke-width="0.78125" stroke-miterlimit="22.926" stroke-linecap="round" stroke-linejoin="round"/>
<path d="M10.5221 19.5657C5.96215 19.32 2.39062 15.5509 2.39062 10.9843C2.39062 6.23817 6.2382 2.39059 10.9844 2.39059C15.7306 2.39059 19.5781 6.23817 19.5781 10.9843C19.5781 12.4727 19.1916 13.9356 18.4563 15.2297" stroke="black" stroke-width="0.78125" stroke-miterlimit="22.926" stroke-linecap="round" stroke-linejoin="round"/>
<path d="M9.47413 6.98889C13.5779 3.29503 17.7183 1.46343 19.1117 2.85686C19.833 3.57811 19.7097 5.08764 18.7678 7.06784M7.06803 18.7676C5.08776 19.7096 3.57815 19.833 2.85694 19.1117C1.4635 17.7183 3.29514 13.5778 6.98909 9.47393" stroke="black" stroke-width="0.78125" stroke-miterlimit="22.926" stroke-linecap="round" stroke-linejoin="round"/>
<path d="M14.9531 11.0691C15.8137 11.0691 16.5156 10.3672 16.5156 9.50659C16.5156 8.64597 15.8137 7.94405 14.9531 7.94405C14.0925 7.94405 13.3906 8.64597 13.3906 9.50659C13.3906 10.3672 14.0925 11.0691 14.9531 11.0691Z" stroke="black" stroke-width="0.78125" stroke-miterlimit="22.926" stroke-linecap="round" stroke-linejoin="round"/>
<path d="M8.11719 14.4597C8.65074 14.4597 9.08594 14.0246 9.08594 13.491C9.08594 12.9574 8.65074 12.5222 8.11719 12.5222C7.58359 12.5222 7.14844 12.9574 7.14844 13.491C7.14844 14.0246 7.58359 14.4597 8.11719 14.4597Z" stroke="black" stroke-width="0.78125" stroke-miterlimit="22.926" stroke-linecap="round" stroke-linejoin="round"/>
<path d="M8.19922 8.19922H8.19949" stroke="black" stroke-width="0.78125" stroke-miterlimit="2.613" stroke-linecap="round" stroke-linejoin="round"/>
</g>
</svg>
