<svg viewBox="0 0 24 24" xmlns="http://www.w3.org/2000/svg">
<g>
<path d="M6.48373 2.42007C6.48373 2.79081 6.37323 3.15323 6.16619 3.4615C5.95916 3.76977 5.66489 4.01005 5.32059 4.15196C4.97629 4.29387 4.59742 4.33103 4.2319 4.25875C3.86637 4.18647 3.53059 4.00799 3.26702 3.74588C3.00345 3.48377 2.82392 3.14981 2.75114 2.7862C2.67835 2.4226 2.71557 2.04569 2.8581 1.70312C3.00063 1.36056 3.24206 1.06774 3.55187 0.86167C3.86167 0.655595 4.22594 0.545541 4.59863 0.54541C4.84615 0.54532 5.09127 0.593748 5.31998 0.687921C5.54868 0.782094 5.7565 0.920162 5.93156 1.09425C6.10662 1.26834 6.24548 1.47503 6.34022 1.70252C6.43497 1.93 6.48373 2.17383 6.48373 2.42007Z" />
<path d="M2.481 6.58252H6.67522L12.1547 20.0365L15.2972 12.6514C16.4832 9.86893 17.2637 7.84597 17.6388 6.58252H22.2039V7.19241C21.463 7.20959 20.9457 7.33256 20.6519 7.56141C20.3582 7.79025 20.2109 8.21031 20.21 8.82157C20.21 8.90601 20.21 9.0037 20.222 9.11399L20.7084 14.1907L21.1947 19.2675C21.3138 20.515 21.5117 21.3166 21.7886 21.6722C22.0655 22.0278 22.6264 22.219 23.4713 22.2458V22.8564H17.1796V22.2458C17.8198 22.2286 18.2716 22.1012 18.5353 21.8636C18.7989 21.626 18.9316 21.1639 18.9334 20.4774C18.9329 20.3327 18.9241 20.1881 18.9068 20.0444L17.9036 9.94502C16.4496 12.515 15.4113 14.5254 14.7889 15.9762L11.5754 23.4544H10.9995L5.01373 8.64329L4.57911 13.2111C4.38314 15.2729 4.28538 16.9057 4.28582 18.1097C4.28582 20.7905 4.9591 22.1692 6.30563 22.2458V22.8564H0.524902V22.2458C1.12164 22.1089 1.59496 21.7292 1.94486 21.1065C2.29478 20.4838 2.65507 19.3728 3.02577 17.7737C3.41024 16.086 3.68157 14.3748 3.83794 12.6514L4.15643 9.26642C4.16572 9.1054 4.16904 8.93178 4.16904 8.74499C4.16904 8.14297 4.05027 7.73789 3.81272 7.52974C3.57517 7.3216 3.13127 7.20918 2.481 7.19241V6.58252Z" />
</g>
</svg>
