<svg viewBox="0 0 40 40" fill="none" xmlns="http://www.w3.org/2000/svg">
<g clip-path="url(#clip0_174_603)">
<path d="M40 0H0V40H40V0Z" fill="black"/>
<path d="M11.572 5.36406C11.572 5.93048 11.4032 6.48418 11.0869 6.95514C10.7706 7.42611 10.321 7.7932 9.79497 8.01001C9.26895 8.22681 8.69013 8.28359 8.13169 8.17316C7.57324 8.06272 7.06024 7.79005 6.65757 7.38961C6.25489 6.98916 5.98062 6.47894 5.86942 5.92343C5.7582 5.36793 5.81508 4.79209 6.03283 4.26873C6.25058 3.74538 6.61943 3.298 7.09275 2.98318C7.56607 2.66834 8.12259 2.5002 8.69197 2.5C9.07013 2.49986 9.44462 2.57385 9.79403 2.71773C10.1434 2.8616 10.4609 3.07254 10.7284 3.33851C10.9958 3.60448 11.208 3.92025 11.3527 4.2678C11.4975 4.61535 11.572 4.98786 11.572 5.36406Z" fill="white"/>
<path d="M5.45724 11.7234H11.8651L20.2365 32.278L25.0375 20.9953C26.8495 16.7443 28.0419 13.6537 28.615 11.7234H35.5895V12.6552C34.4575 12.6814 33.6671 12.8693 33.2184 13.2189C32.7696 13.5685 32.5446 14.2103 32.5432 15.1442C32.5432 15.2732 32.5432 15.4224 32.5615 15.5909L33.3046 23.347L34.0476 31.1032C34.2295 33.0092 34.5319 34.2338 34.955 34.777C35.378 35.3203 36.235 35.6124 37.5257 35.6534V36.5863H27.9135V35.6534C28.8915 35.6272 29.5817 35.4325 29.9846 35.0695C30.3874 34.7064 30.5901 34.0005 30.5929 32.9517C30.5921 32.7305 30.5786 32.5097 30.5522 32.2902L29.0195 16.8605C26.7981 20.7869 25.2119 23.8583 24.261 26.0749L19.3515 37.4999H18.4716L9.32667 14.8718L8.66267 21.8504C8.36329 25.0003 8.21392 27.4949 8.2146 29.3343C8.2146 33.43 9.24321 35.5364 11.3004 35.6534V36.5863H2.46875V35.6534C3.38044 35.4443 4.10356 34.8642 4.63814 33.9128C5.17272 32.9614 5.72317 31.2642 6.28952 28.821C6.87691 26.2427 7.29144 23.6283 7.53034 20.9953L8.01692 15.8238C8.03111 15.5778 8.03619 15.3125 8.03619 15.0272C8.03619 14.1074 7.85472 13.4885 7.49181 13.1705C7.12889 12.8525 6.4507 12.6808 5.45724 12.6552V11.7234Z" fill="white"/>
</g>
<defs>
<clipPath id="clip0_174_603">
<rect width="40" height="40" fill="white"/>
</clipPath>
</defs>
</svg>
