<svg viewBox="0 0 149 149" xmlns="http://www.w3.org/2000/svg">
<g fill="none">
<mask id="mask0_246_24" style="mask-type:luminance" maskUnits="userSpaceOnUse" x="0" y="0" width="149" height="149">
<path d="M149 -4.57764e-05H-4.57764e-05V149H149V-4.57764e-05Z" fill="white"/>
</mask>
<g mask="url(#mask0_246_24)">
<path d="M88.5573 128.704C88.878 129.896 89.0488 131.151 89.0488 132.445C89.0488 134.149 88.7505 135.783 88.2063 137.299" stroke="currentColor" stroke-width="4.36524" stroke-miterlimit="10" stroke-linecap="round" stroke-linejoin="round"/>
<path d="M81.041 145.331C79.1221 146.281 76.9618 146.817 74.6759 146.817C66.7382 146.817 60.3032 140.382 60.3032 132.445C60.3032 131.151 60.4744 129.897 60.7948 128.704" stroke="currentColor" stroke-width="4.36524" stroke-miterlimit="10" stroke-linecap="round" stroke-linejoin="round"/>
<path d="M120.595 43.8741C123.125 49.8568 124.526 56.4329 124.526 63.337V87.3519C124.526 97.822 127.984 107.99 134.324 116.322C136.139 118.707 137.544 121.421 138.257 124.489C138.706 126.422 137.237 128.272 135.252 128.272H13.7492C11.7642 128.272 10.2952 126.422 10.7445 124.489C11.4578 121.421 12.8625 118.707 14.677 116.322C21.0171 107.99 24.4752 97.822 24.4752 87.3519V79.6862" stroke="currentColor" stroke-width="4.36524" stroke-miterlimit="10" stroke-linecap="round" stroke-linejoin="round"/>
<path d="M108.553 26.6926C111.076 29.0384 113.357 31.6419 115.354 34.4609" stroke="currentColor" stroke-width="4.36524" stroke-miterlimit="10" stroke-linecap="round" stroke-linejoin="round"/>
<path d="M38.7565 28.3403C45.3986 21.5585 53.9556 16.659 63.5524 14.5165C66.7976 13.7919 69.1012 10.9067 69.1012 7.5816C69.1012 4.59985 71.5184 2.18297 74.5002 2.18297C77.4816 2.18297 79.8988 4.59985 79.8988 7.5816C79.8988 10.9067 82.2025 13.7919 85.4476 14.5165C89.1793 15.3494 92.7535 16.5996 96.1191 18.215" stroke="currentColor" stroke-width="4.36524" stroke-miterlimit="10" stroke-linecap="round" stroke-linejoin="round"/>
<path d="M24.4749 68.9106V63.3368C24.4749 54.7699 26.6284 46.7059 30.4238 39.6572" stroke="currentColor" stroke-width="4.36524" stroke-miterlimit="10" stroke-linecap="round" stroke-linejoin="round"/>
<path d="M69.2563 75.8774C70.6785 74.6636 72.6737 73.902 74.8897 73.8953C77.1061 73.8889 79.1057 74.6383 80.5352 75.8437" stroke="currentColor" stroke-width="4.36524" stroke-miterlimit="10" stroke-linecap="round" stroke-linejoin="round"/>
<path d="M61.8438 65.2192H61.816" stroke="currentColor" stroke-width="4.36524" stroke-miterlimit="10" stroke-linecap="round" stroke-linejoin="round"/>
<path d="M87.3613 65.2192H87.3342" stroke="currentColor" stroke-width="4.36524" stroke-miterlimit="10" stroke-linecap="round" stroke-linejoin="round"/>
<path d="M61.8457 65.2192H61.8186" stroke="currentColor" stroke-width="4.36524" stroke-miterlimit="10" stroke-linecap="round" stroke-linejoin="round"/>
<path d="M12.0013 26.2166L19.0078 33.2231" stroke="currentColor" stroke-width="4.36524" stroke-miterlimit="10" stroke-linecap="round" stroke-linejoin="round"/>
<path d="M12.0013 33.2231L19.0078 26.2166" stroke="currentColor" stroke-width="4.36524" stroke-miterlimit="10" stroke-linecap="round" stroke-linejoin="round"/>
<path d="M27.8978 34.0636C27.8978 37.8134 30.9374 40.853 34.6872 40.853C38.4369 40.853 41.4766 37.8134 41.4766 34.0636C41.4766 30.3139 38.4369 27.2742 34.6872 27.2742C30.9374 27.2742 27.8978 30.3139 27.8978 34.0636Z" stroke="currentColor" stroke-width="4.36524" stroke-miterlimit="10" stroke-linecap="round" stroke-linejoin="round"/>
<path d="M96.12 20.1023C96.12 24.3293 99.5467 27.7563 103.774 27.7563C108.001 27.7563 111.428 24.3293 111.428 20.1023C111.428 15.8753 108.001 12.4483 103.774 12.4483C99.5467 12.4483 96.12 15.8753 96.12 20.1023Z" stroke="currentColor" stroke-width="4.36524" stroke-miterlimit="10" stroke-linecap="round" stroke-linejoin="round"/>
<path d="M21.6294 10.5231C21.6294 15.0329 25.2855 18.689 29.795 18.689C34.3049 18.689 37.9609 15.0329 37.9609 10.5231C37.9609 6.01319 34.3049 2.35745 29.795 2.35745C25.2855 2.35745 21.6294 6.01319 21.6294 10.5231Z" stroke="currentColor" stroke-width="4.36524" stroke-miterlimit="10" stroke-linecap="round" stroke-linejoin="round"/>
<path d="M122.944 10.5239L128.715 16.2944" stroke="currentColor" stroke-width="4.36524" stroke-miterlimit="10" stroke-linecap="round" stroke-linejoin="round"/>
<path d="M122.944 16.2944L128.715 10.5239" stroke="currentColor" stroke-width="4.36524" stroke-miterlimit="10" stroke-linecap="round" stroke-linejoin="round"/>
<path d="M128.793 107.845H20.2104" stroke="currentColor" stroke-width="4.36524" stroke-miterlimit="10" stroke-linecap="round" stroke-linejoin="round"/>
</g>
</g>
</svg>
