<svg viewBox="0 0 24 24" fill="none" xmlns="http://www.w3.org/2000/svg">
<path d="M22 12C22 14.6522 20.9464 17.1957 19.0711 19.0711C17.1957 20.9464 14.6522 22 12 22C9.34784 22 6.8043 20.9464 4.92893 19.0711C3.05357 17.1957 2 14.6522 2 12C2 9.34784 3.05357 6.8043 4.92893 4.92893C6.8043 3.05357 9.34784 2 12 2C14.6522 2 17.1957 3.05357 19.0711 4.92893C20.9464 6.8043 22 9.34784 22 12ZM10.4875 8.36625C10.394 8.29971 10.2841 8.26018 10.1697 8.25198C10.0552 8.24379 9.94074 8.26724 9.83876 8.31978C9.73678 8.37233 9.65122 8.45192 9.59147 8.54986C9.53172 8.64779 9.50007 8.76028 9.5 8.875V15.125C9.50007 15.2397 9.53172 15.3522 9.59147 15.4501C9.65122 15.5481 9.73678 15.6277 9.83876 15.6802C9.94074 15.7328 10.0552 15.7562 10.1697 15.748C10.2841 15.7398 10.394 15.7003 10.4875 15.6337L14.8625 12.5087C14.9435 12.4509 15.0096 12.3746 15.0551 12.2861C15.1007 12.1976 15.1245 12.0995 15.1245 12C15.1245 11.9005 15.1007 11.8024 15.0551 11.7139C15.0096 11.6254 14.9435 11.5491 14.8625 11.4912L10.4875 8.36625Z" fill="#383838" fill-opacity="0.7"/>
<path d="M10.4875 8.36586C10.394 8.29933 10.2841 8.25979 10.1697 8.2516C10.0552 8.2434 9.94074 8.26686 9.83876 8.3194C9.73678 8.37194 9.65122 8.45154 9.59147 8.54947C9.53172 8.6474 9.50007 8.75989 9.5 8.87461V15.1246C9.50007 15.2393 9.53172 15.3518 9.59147 15.4498C9.65122 15.5477 9.73678 15.6273 9.83876 15.6798C9.94074 15.7324 10.0552 15.7558 10.1697 15.7476C10.2841 15.7394 10.394 15.6999 10.4875 15.6334L14.8625 12.5084C14.9435 12.4506 15.0096 12.3742 15.0551 12.2857C15.1007 12.1972 15.1245 12.0991 15.1245 11.9996C15.1245 11.9001 15.1007 11.802 15.0551 11.7135C15.0096 11.625 14.9435 11.5487 14.8625 11.4909L10.4875 8.36586Z" fill="white"/>
</svg>
