<svg viewBox="0 0 24 24" fill="none" xmlns="http://www.w3.org/2000/svg">
<path d="M3.40234 4.16968H4.57422V19.2443H3.40234V4.16968Z" fill="#453D81"/>
<path d="M19.4258 4.16968H20.5977V19.2443H19.4258V4.16968Z" fill="#2E2654"/>
<path d="M2 18.6584H5.97652V19.8303H2V18.6584Z" fill="#453D81"/>
<path d="M18.0234 18.6584H22V19.8303H18.0234V18.6584Z" fill="#2E2654"/>
<path d="M11.1002 7.66384L10.2773 9.76493H12.0007L13.087 6.95142L11.1002 7.66384Z" fill="#F9F9F9"/>
<path d="M13.7554 5.56274L12 6.95146V9.76497H13.8853L16.4273 7.80138L17.3641 5.56274H13.7554Z" fill="#E2DFF4"/>
<path d="M6.5373 5.56274L4.26832 7.53966L3.05859 9.76497H6.66726L8.77234 7.98606L10.146 5.56274H6.5373Z" fill="#F9F9F9"/>
<path d="M21.9991 5.56274H20.9719L18.1686 7.85556L17.4932 9.76497H21.9991V5.56274Z" fill="#E2DFF4"/>
<path d="M2 5.56274V9.76497H3.05926L6.53796 5.56274H2Z" fill="#FF8659"/>
<path d="M10.1467 5.56274L6.66797 9.76497H10.2767L12 7.68317L12.3381 6.50274L12 5.56274H10.1467Z" fill="#FF8659"/>
<path d="M17.3645 5.56274L13.8857 9.76497H17.4944L20.9732 5.56274H17.3645Z" fill="#FF6326"/>
<path d="M12 5.56274V7.68317L13.7554 5.56274H12Z" fill="#FF6326"/>
<path d="M11.1002 13.7646L10.2773 15.8657H12.0007L13.087 13.0522L11.1002 13.7646Z" fill="#F9F9F9"/>
<path d="M13.7554 11.6633L12 13.0521V15.8656H13.8853L16.4273 13.902L17.3641 11.6633H13.7554Z" fill="#E2DFF4"/>
<path d="M6.5373 11.6633L4.26832 13.6402L3.05859 15.8656H6.66726L8.77234 14.0867L10.146 11.6633H6.5373Z" fill="#F9F9F9"/>
<path d="M21.9991 11.6633H20.9719L18.1686 13.9561L17.4932 15.8656H21.9991V11.6633Z" fill="#E2DFF4"/>
<path d="M2 11.6633V15.8656H3.05926L6.53796 11.6633H2Z" fill="#FF8659"/>
<path d="M10.1467 11.6633L6.66797 15.8656H10.2767L12 13.7838L12.3381 12.6033L12 11.6633H10.1467Z" fill="#FF8659"/>
<path d="M17.3645 11.6633L13.8857 15.8656H17.4944L20.9732 11.6633H17.3645Z" fill="#FF6326"/>
<path d="M12 11.6633V13.7838L13.7554 11.6633H12Z" fill="#FF6326"/>
</svg>
