<svg viewBox="0 0 24 24" fill="none" xmlns="http://www.w3.org/2000/svg">
<g clip-path="url(#clip0_175_611)">
<path d="M24 0H0V24H24V0Z" fill="black"/>
<path d="M6.9431 3.21844C6.9431 3.55829 6.8418 3.89051 6.65201 4.17308C6.46223 4.45567 6.19249 4.67592 5.87688 4.80601C5.56127 4.93609 5.21398 4.97015 4.87892 4.9039C4.54385 4.83763 4.23605 4.67403 3.99444 4.43377C3.75284 4.1935 3.58827 3.88736 3.52155 3.55406C3.45482 3.22076 3.48895 2.87525 3.6196 2.56124C3.75025 2.24723 3.97156 1.9788 4.25555 1.78991C4.53954 1.601 4.87346 1.50012 5.21508 1.5C5.44198 1.49992 5.66667 1.54431 5.87632 1.63064C6.08597 1.71696 6.27647 1.84352 6.43694 2.00311C6.59741 2.16269 6.7247 2.35215 6.81155 2.56068C6.8984 2.76921 6.9431 2.99272 6.9431 3.21844Z" fill="white"/>
<path d="M3.27454 7.03418H7.11924L12.1421 19.367L15.0227 12.5973C16.1099 10.0467 16.8253 8.19234 17.1692 7.03418H21.3539V7.59324C20.6747 7.60899 20.2005 7.72172 19.9312 7.93149C19.662 8.14127 19.527 8.52632 19.5261 9.08664C19.5261 9.16404 19.5261 9.25359 19.5371 9.35469L19.983 14.0084L20.4288 18.662C20.5379 19.8056 20.7193 20.5404 20.9732 20.8664C21.227 21.1923 21.7412 21.3676 22.5156 21.3922V21.9519H16.7483V21.3922C17.3351 21.3764 17.7492 21.2597 17.991 21.0419C18.2326 20.824 18.3543 20.4005 18.3559 19.7711C18.3555 19.6385 18.3474 19.5059 18.3315 19.3742L17.4119 10.1165C16.0791 12.4723 15.1273 14.3151 14.5568 15.6451L11.6111 22.5001H11.0832L5.5962 8.92322L5.1978 13.1104C5.01817 15.0003 4.92855 16.4971 4.92896 17.6007C4.92896 20.0582 5.54612 21.322 6.78044 21.3922V21.9519H1.48145V21.3922C2.02846 21.2667 2.46233 20.9186 2.78308 20.3478C3.10383 19.777 3.4341 18.7586 3.77391 17.2928C4.12634 15.7457 4.37506 14.1771 4.5184 12.5973L4.81035 9.49442C4.81886 9.34682 4.82191 9.18767 4.82191 9.01644C4.82191 8.46459 4.71303 8.09327 4.49528 7.90247C4.27753 7.71167 3.87062 7.60862 3.27454 7.59324V7.03418Z" fill="white"/>
</g>
<defs>
<clipPath id="clip0_175_611">
<rect width="24" height="24" fill="white"/>
</clipPath>
</defs>
</svg>
